<?xml version="1.0" encoding="utf-8" ?><svg xmlns="http://www.w3.org/2000/svg" xmlns:xlink="http://www.w3.org/1999/xlink" width="589" height="201" viewBox="0 0 589 201"><path fill="#4AC1EB" d="M294.496 33.538C284.901 33.3046 290.003 28.0729 291.764 23.3291C294.823 15.0921 300.407 10.4157 309.661 10.937C316.093 11.2994 319.683 15.7156 322.287 21.4731C323.302 22.0326 327.317 24.2589 327.155 25.7152C326.465 31.9353 328.813 29.0674 330.295 30.9127C335.565 37.47 344.988 38.2672 339.946 47.8249C341.619 52.7698 343.767 59.3927 344.144 64.6237C347.671 69.9525 347.206 69.0252 347.057 75.4981C348.69 83.9283 345.833 85.7838 340.01 91.4871C339.49 92.8261 339.098 93.7729 338.789 95.1782C342.936 95.4934 354.068 94.6117 358.397 93.9688C361.229 88.3251 364.239 82.0336 366.506 76.2481C370.231 66.7388 371.585 53.9948 381.699 48.771C383.095 48.0501 384.558 47.0142 385.885 46.1306C386.827 45.4646 389.205 44.226 390.306 43.6133C393.372 43.9298 397.267 48.0821 404.101 49.0318C405.217 48.7546 405.178 48.4371 405.38 47.5168L405.454 47.6677C405.917 48.7697 406.408 49.1583 406.954 50.1116C408.154 52.2051 409.375 54.6949 409.932 57.0317C411.966 61.5572 412.76 64.5193 414.049 69.3565C414.335 70.4425 414.75 73.0847 414.557 74.106C414.508 79.9877 413.624 83.4307 412.272 89.1731C413.062 89.7307 416.415 89.1248 417.555 88.9815C421.755 84.3661 426.026 73.9372 430.024 68.733C431.223 67.1722 433.629 61.8769 435.854 61.6113C441.943 60.8844 448.098 62.1303 454.124 62.3859C454.183 61.9955 454.26 61.6081 454.355 61.2248C456.775 51.4185 461.693 48.0726 469.563 43.2823C470.971 42.2337 471.583 41.7861 473.147 41.0132L473.962 41.7843C477.581 41.825 482.237 46.0433 487.102 45.3536C488.052 44.956 488.01 44.9717 488.359 44.0831C489.874 44.7144 492.108 45.5401 493.117 46.8305C492.999 48.4076 494.802 50.2644 495.063 52.1227C495.303 53.8329 495.261 56.3972 495.112 58.0959C495.487 61.0702 495.848 63.5611 496.475 66.4993C496.708 67.4883 497.31 69.7474 497.282 70.638C498.496 75.6921 507.665 73.5555 510.464 78.0845C512.766 81.8109 517.508 88.8223 518.871 92.8402C520.595 92.2925 523.069 91.5098 524.028 93.6622C523.588 96.5304 520.497 97.4663 518.137 98.0951C518.453 103.335 515.169 107.759 513.524 112.904C515.832 113.358 517.735 114.941 519.766 116.048C521.548 117.02 531.574 122.172 532.679 122.25C532.743 122.255 532.806 122.262 532.87 122.265C532.908 122.267 532.947 122.266 532.985 122.267C534.308 122.174 542.139 122.309 543.809 122.352C549.163 122.489 558.766 121.887 563.765 122.65C565.782 124.232 567.019 125.297 567.41 128.004C567.833 130.942 566.08 134.365 562.941 134.807C552.618 136.258 541.226 134.339 530.983 135.463C533.963 139.971 533.12 143.505 530.679 147.885C539.038 147.886 557.46 145.088 549.349 159.538C548.032 161.884 537.719 161.411 534.997 161.408L519.671 161.391L498.813 161.38C495.749 161.389 491.832 161.588 488.853 161.461C488.4 161.441 487.947 161.415 487.494 161.383C490.884 167.382 490.749 170.211 485.482 174.622C489.619 174.205 494.986 174.461 499.271 174.469L524.011 174.482L560.987 174.455C567.582 174.448 574.185 174.404 580.779 174.497C582.391 174.64 584.147 174.433 585.476 175.436C588.128 177.438 588.629 183.181 586.369 185.565C583.517 188.573 574.309 187.511 570.289 187.514L546.407 187.533L521.314 187.536C517.127 187.536 512.041 187.67 507.938 187.493C511.748 192.301 512.601 197.792 506.357 201L112.484 201C106.649 198.451 107.102 192.07 110.609 187.715C106.132 187.352 100.33 187.531 95.7385 187.536L70.8764 187.549C66.4328 187.549 61.136 187.81 56.797 187.258C50.286 186.429 51.1795 178.242 54.8454 174.56C47.0145 174.263 38.833 174.804 31.0671 174.32C23.8699 173.871 22.681 166.916 26.3391 161.377C18.9394 161.726 7.6272 162.803 1.70773 158.598C0.680464 155.127 0.634491 153.819 1.67676 150.401C1.77352 150.301 1.87193 150.203 1.97198 150.106C4.37877 147.794 6.97842 147.96 10.1377 147.939C15.5014 147.904 20.8581 147.907 26.2207 148.036C23.9213 143.215 23.7348 142.236 24.631 137.051C24.6855 137.001 24.7403 136.951 24.7954 136.901C27.9376 134.082 32.5212 134.822 36.5059 134.786C40.6605 134.749 44.9494 134.504 49.0801 134.721C47.7687 132.896 46.3648 130.521 46.3469 128.222C46.3255 126.785 46.9021 125.403 47.939 124.408C50.6066 121.799 54.476 122.169 57.9208 122.182C58.6602 121.608 59.5911 120.691 60.3801 120.039C62.4108 121.296 65.9356 121.524 67.483 122.456L68.4142 121.891C69.5858 121.928 70.0378 121.908 71.1511 122.38C73.0569 121.796 77.8092 115.722 79.2323 114.032C80.1778 111.313 80.927 102.932 81.1199 100.075C81.0525 98.7577 81.1054 96.9854 81.1047 95.6316L80.8497 95.4271C81.9117 92.2247 80.1827 90.0515 84.0157 86.2098C87.2674 85.3446 93.2563 80.4734 95.8316 78.1636C97.6602 75.89 98.3602 74.6823 99.7389 72.1728C103.241 71.8675 109.7 70.6554 113.127 69.6913C114.581 69.2823 114.704 68.5723 115.242 67.3968C117.61 67.9108 118.84 67.8388 121.209 67.4091C121.597 69.0411 121.528 71.2255 121.542 72.9423C121.451 79.8993 119.524 85.3652 117.69 92.0537C118.996 93.1592 136.05 93.9062 139.054 94.0364C139.347 90.0512 146.386 75.4638 148.063 70.7004C149.935 65.3855 152.074 58.0822 154.456 53.0742C156.597 48.5731 160.118 46.3894 164.621 44.8519L165.842 44.4078C167.2 43.5861 168.993 43.043 170.502 42.537L170.909 42.7023C173.535 44.0484 179.718 47.5223 182.351 47.5056C182.551 46.6048 182.772 45.7089 183.015 44.8188C184.484 46.897 187.362 48.9751 188.064 50.0748C190.075 53.2286 193.774 64.8507 194.473 68.2502C197.055 77.5315 198.458 82.3737 203.068 90.8432C204.953 91.3839 213.562 91.4502 215.394 90.8709C213.986 84.9657 213.174 65.8966 215.402 59.914C218.101 52.6636 219.92 52.8302 225.361 50.1193C227.543 50.2288 241.556 51.0657 242.666 51.55C243.267 51.6827 243.675 51.4927 244.274 51.3141L244.345 51.3568C245.623 52.1119 247.865 52.7302 249.321 53.2103C253.379 54.5484 255.719 60.0528 256.532 63.9501C257.444 68.3253 261.026 91.7738 263.093 94.6213C263.563 92.721 263.242 90.1502 263.299 88.0068C263.484 80.9667 262.196 71.7767 264.378 65.104C265.167 62.6902 268.426 61.6935 270.61 60.8391C272.238 58.491 273.151 55.888 276.06 54.5132C280.696 52.3218 287.054 53.5824 291.797 55.0404C294.24 55.7912 294.881 56.5333 295.892 58.6718C296.508 51.8078 295.392 47.6527 303.298 44.7401L303.415 44.0748C299.702 41.0066 297.816 43.8343 298.026 36.8343C298.065 35.5544 295.59 34.1823 294.496 33.538ZM514.151 121.931C513.839 121.143 511.733 118.562 511.092 117.738C510.246 118.904 508.547 121.053 508.438 122.425C509.93 122.16 512.701 121.856 514.151 121.931ZM303.298 44.7401C295.392 47.6527 296.508 51.8078 295.892 58.6718C294.881 56.5333 294.24 55.7912 291.797 55.0404C287.054 53.5824 280.696 52.3218 276.06 54.5132C273.151 55.888 272.238 58.491 270.61 60.8391C268.426 61.6935 265.167 62.6902 264.378 65.104C262.196 71.7767 263.484 80.9667 263.299 88.0068C263.242 90.1502 263.563 92.721 263.093 94.6213C261.026 91.7738 257.444 68.3253 256.532 63.9501C255.719 60.0528 253.379 54.5484 249.321 53.2103C247.865 52.7302 245.623 52.1119 244.345 51.3568L244.274 51.3141C243.675 51.4927 243.267 51.6827 242.666 51.55C241.556 51.0657 227.543 50.2288 225.361 50.1193C219.92 52.8302 218.101 52.6636 215.402 59.914C213.174 65.8966 213.986 84.9657 215.394 90.8709C213.562 91.4502 204.953 91.3839 203.068 90.8432C198.458 82.3737 197.055 77.5315 194.473 68.2502C193.774 64.8507 190.075 53.2286 188.064 50.0748C187.362 48.9751 184.484 46.897 183.015 44.8188C182.772 45.7089 182.551 46.6048 182.351 47.5056C179.718 47.5223 173.535 44.0484 170.909 42.7023L170.502 42.537C168.993 43.043 167.2 43.5861 165.842 44.4078L164.621 44.8519C160.118 46.3894 156.597 48.5731 154.456 53.0742C152.074 58.0822 149.935 65.3855 148.063 70.7004C146.386 75.4638 139.347 90.0512 139.054 94.0364C136.05 93.9062 118.996 93.1592 117.69 92.0537C117.467 92.9972 117.629 92.6766 116.817 93.3647C117.192 94.415 116.585 97.604 115.92 98.5021C115.371 100.295 112.707 108.658 112.583 110.019C120.717 110.246 128.706 111.091 136.808 111.538L182.481 113.647C220.42 115.162 258.39 115.778 296.359 115.494C304.295 115.423 312.229 115.281 320.163 115.07C324.603 114.93 370.76 112.866 372.307 113.427L372.521 113.896C372.698 113.861 372.906 113.821 373.146 113.775C375.499 115.241 380.995 118.123 382.974 119.464C383.181 119.605 383.384 119.752 383.583 119.903C385.513 116.573 385.411 115.864 388.399 113.24C390.978 116.837 396.944 120.294 401.212 121.278C401.968 121.453 403.063 121.744 403.808 121.813L403.812 118.452C403.987 117.02 404.069 116.747 404.713 115.457C404.745 114.556 405.788 111.295 406.126 110.428C406.544 108.426 408.934 103.222 408.639 101.431L407.872 101.066L408.658 100.93C409.602 100.412 410.517 96.5496 410.127 95.6667C411.112 94.3242 411.825 90.9123 412.272 89.1731C413.624 83.4307 414.508 79.9877 414.557 74.106C414.75 73.0847 414.335 70.4425 414.049 69.3565C412.76 64.5193 411.966 61.5572 409.932 57.0317C409.375 54.6949 408.154 52.2051 406.954 50.1116C406.408 49.1583 405.917 48.7697 405.454 47.6677L405.38 47.5168C405.178 48.4371 405.217 48.7546 404.101 49.0318C397.267 48.0821 393.372 43.9298 390.306 43.6133C389.205 44.226 386.827 45.4646 385.885 46.1306C384.558 47.0142 383.095 48.0501 381.699 48.771C371.585 53.9948 370.231 66.7388 366.506 76.2481C364.239 82.0336 361.229 88.3251 358.397 93.9688C354.068 94.6117 342.936 95.4934 338.789 95.1782C339.098 93.7729 339.49 92.8261 340.01 91.4871C345.833 85.7838 348.69 83.9283 347.057 75.4981C347.206 69.0252 347.671 69.9525 344.144 64.6237C343.767 59.3927 341.619 52.7698 339.946 47.8249C344.988 38.2672 335.565 37.47 330.295 30.9127C328.813 29.0674 326.465 31.9353 327.155 25.7152C327.317 24.2589 323.302 22.0326 322.287 21.4731C319.683 15.7156 316.093 11.2994 309.661 10.937C300.407 10.4157 294.823 15.0921 291.764 23.3291C290.003 28.0729 284.901 33.3046 294.496 33.538C295.59 34.1823 298.065 35.5544 298.026 36.8343C297.816 43.8343 299.702 41.0066 303.415 44.0748L303.298 44.7401Z"/><path fill="#E13229" d="M294.496 33.538C284.901 33.3046 290.003 28.0729 291.764 23.3291C294.823 15.0921 300.407 10.4157 309.661 10.937C316.093 11.2994 319.683 15.7156 322.287 21.4731C323.302 22.0326 327.317 24.2589 327.155 25.7152C326.465 31.9353 328.813 29.0674 330.295 30.9127C335.565 37.47 344.988 38.2672 339.946 47.8249C341.619 52.7698 343.767 59.3927 344.144 64.6237C347.671 69.9525 347.206 69.0252 347.057 75.4981C348.69 83.9283 345.833 85.7838 340.01 91.4871C339.49 92.8261 339.098 93.7729 338.789 95.1782C342.936 95.4934 354.068 94.6117 358.397 93.9688C361.229 88.3251 364.239 82.0336 366.506 76.2481C370.231 66.7388 371.585 53.9948 381.699 48.771C383.095 48.0501 384.558 47.0142 385.885 46.1306C386.827 45.4646 389.205 44.226 390.306 43.6133C393.372 43.9298 397.267 48.0821 404.101 49.0318C405.217 48.7546 405.178 48.4371 405.38 47.5168L405.454 47.6677C405.917 48.7697 406.408 49.1583 406.954 50.1116C408.154 52.2051 409.375 54.6949 409.932 57.0317C411.966 61.5572 412.76 64.5193 414.049 69.3565C414.335 70.4425 414.75 73.0847 414.557 74.106C414.508 79.9877 413.624 83.4307 412.272 89.1731C411.825 90.9123 411.112 94.3242 410.127 95.6667C410.517 96.5496 409.602 100.412 408.658 100.93L407.872 101.066L408.639 101.431C408.934 103.222 406.544 108.426 406.126 110.428C405.788 111.295 404.745 114.556 404.713 115.457C404.069 116.747 403.987 117.02 403.812 118.452L403.808 121.813C403.063 121.744 401.968 121.453 401.212 121.278C396.944 120.294 390.978 116.837 388.399 113.24C385.411 115.864 385.513 116.573 383.583 119.903C383.384 119.752 383.181 119.605 382.974 119.464C380.995 118.123 375.499 115.241 373.146 113.775C372.906 113.821 372.698 113.861 372.521 113.896L372.307 113.427C370.76 112.866 324.603 114.93 320.163 115.07C312.229 115.281 304.295 115.423 296.359 115.494C258.39 115.778 220.42 115.162 182.481 113.647L136.808 111.538C128.706 111.091 120.717 110.246 112.583 110.019C112.707 108.658 115.371 100.295 115.92 98.5021C116.585 97.604 117.192 94.415 116.817 93.3647C117.629 92.6766 117.467 92.9972 117.69 92.0537C118.996 93.1592 136.05 93.9062 139.054 94.0364C139.347 90.0512 146.386 75.4638 148.063 70.7004C149.935 65.3855 152.074 58.0822 154.456 53.0742C156.597 48.5731 160.118 46.3894 164.621 44.8519L165.842 44.4078C167.2 43.5861 168.993 43.043 170.502 42.537L170.909 42.7023C173.535 44.0484 179.718 47.5223 182.351 47.5056C182.551 46.6048 182.772 45.7089 183.015 44.8188C184.484 46.897 187.362 48.9751 188.064 50.0748C190.075 53.2286 193.774 64.8507 194.473 68.2502C197.055 77.5315 198.458 82.3737 203.068 90.8432C204.953 91.3839 213.562 91.4502 215.394 90.8709C213.986 84.9657 213.174 65.8966 215.402 59.914C218.101 52.6636 219.92 52.8302 225.361 50.1193C227.543 50.2288 241.556 51.0657 242.666 51.55C243.267 51.6827 243.675 51.4927 244.274 51.3141L244.345 51.3568C245.623 52.1119 247.865 52.7302 249.321 53.2103C253.379 54.5484 255.719 60.0528 256.532 63.9501C257.444 68.3253 261.026 91.7738 263.093 94.6213C263.563 92.721 263.242 90.1502 263.299 88.0068C263.484 80.9667 262.196 71.7767 264.378 65.104C265.167 62.6902 268.426 61.6935 270.61 60.8391C272.238 58.491 273.151 55.888 276.06 54.5132C280.696 52.3218 287.054 53.5824 291.797 55.0404C294.24 55.7912 294.881 56.5333 295.892 58.6718C296.508 51.8078 295.392 47.6527 303.298 44.7401L303.415 44.0748C299.702 41.0066 297.816 43.8343 298.026 36.8343C298.065 35.5544 295.59 34.1823 294.496 33.538ZM273.839 97.495C272.778 93 270.351 89.8091 273.832 85.7399C274.264 84.6054 274.677 83.4639 275.072 82.3159C275.983 80.7225 277.318 78.9724 278.409 77.462C278.56 77.1651 278.629 76.3846 278.678 76.016L278.603 75.9726C276.804 74.9219 273.72 71.862 272.488 70.1049C271.684 68.9578 270.902 64.6058 270.054 64.2257C262.136 69.602 270.558 85.8652 269.166 93.2358C268.856 94.8799 268.29 96.1213 267.685 97.6423C269.027 97.7347 272.604 97.8823 273.839 97.495ZM204.601 93.4937C205.162 94.568 205.928 96.1455 206.538 97.1399C209.364 97.7356 212.875 97.5532 215.788 97.4554C215.826 95.9377 215.735 94.9405 215.587 93.4257C211.87 93.35 208.32 93.2337 204.601 93.4937ZM292.31 66.7556C293.119 68.7834 293.45 69.1309 295.036 70.4887C293.989 71.3635 293.008 71.9992 292.751 73.3363C292.988 74.3075 292.782 73.9878 293.566 74.6073C294.583 74.6368 294.212 74.744 295.055 74.1937C296.344 71.4307 295.123 65.2753 295.752 60.8924L295.49 60.5603C295.129 61.0856 295.019 61.2306 294.791 61.8566C294.168 63.7791 293.397 65.0724 292.31 66.7556ZM192.917 97.0687C192.012 95.6855 190.29 92.8543 189.181 91.8193L188.778 91.8352C188.145 93.301 187.693 95.132 187.261 96.694C188.321 96.8601 191.858 97.202 192.917 97.0687Z"/><path fill="#4AC1EB" d="M294.496 33.538C284.901 33.3046 290.003 28.0729 291.764 23.3291C294.823 15.0921 300.407 10.4157 309.661 10.937C316.093 11.2994 319.683 15.7156 322.287 21.4731C323.302 22.0326 327.317 24.2589 327.155 25.7152C326.465 31.9353 328.813 29.0674 330.295 30.9127C335.565 37.47 344.988 38.2672 339.946 47.8249C341.619 52.7698 343.767 59.3927 344.144 64.6237C347.671 69.9525 347.206 69.0252 347.057 75.4981C348.69 83.9283 345.833 85.7838 340.01 91.4871C339.49 92.8261 339.098 93.7729 338.789 95.1782C337.561 95.462 336.154 95.2631 334.88 95.1639C333.761 93.4987 332.778 92.5248 331.212 91.3068L326.004 90.8993L325.578 90.2424L325.491 90.2705C326.368 89.478 327.23 88.6697 328.078 87.8459C325.364 86.8462 321.545 85.9737 319.244 84.4506C317.651 86.612 317.511 88.6521 314.639 89.0681C309.843 91.5751 309.148 90.1002 306.584 91.0882C305.291 91.4287 304.861 91.6883 303.716 92.3174C295.315 95.5593 291.363 99.0075 291.292 87.0182L291.101 87.0539C290.917 84.9713 289.906 84.2472 288.452 82.77C286.876 82.6889 285.746 82.5976 284.186 82.3695C283.181 82.6978 283.068 82.8829 282.441 83.7598C281.233 82.7405 280.946 82.5761 279.481 81.977C277.728 81.7339 276.816 81.9964 275.072 82.3159C275.983 80.7225 277.318 78.9724 278.409 77.462C278.56 77.1651 278.629 76.3846 278.678 76.016L278.603 75.9726C276.804 74.9219 273.72 71.862 272.488 70.1049C271.684 68.9578 270.902 64.6058 270.054 64.2257C262.136 69.602 270.558 85.8652 269.166 93.2358C268.856 94.8799 268.29 96.1213 267.685 97.6423C265.544 97.8487 263.277 97.8051 261.117 97.8081C261.676 97.6654 262.15 97.4969 262.693 97.308C263.305 96.3379 263.092 95.906 263.093 94.6213C263.563 92.721 263.242 90.1502 263.299 88.0068C263.484 80.9667 262.196 71.7767 264.378 65.104C265.167 62.6902 268.426 61.6935 270.61 60.8391C272.238 58.491 273.151 55.888 276.06 54.5132C280.696 52.3218 287.054 53.5824 291.797 55.0404C294.24 55.7912 294.881 56.5333 295.892 58.6718C296.508 51.8078 295.392 47.6527 303.298 44.7401L303.415 44.0748C299.702 41.0066 297.816 43.8343 298.026 36.8343C298.065 35.5544 295.59 34.1823 294.496 33.538ZM292.31 66.7556C293.119 68.7834 293.45 69.1309 295.036 70.4887C293.989 71.3635 293.008 71.9992 292.751 73.3363C292.988 74.3075 292.782 73.9878 293.566 74.6073C294.583 74.6368 294.212 74.744 295.055 74.1937C296.344 71.4307 295.123 65.2753 295.752 60.8924L295.49 60.5603C295.129 61.0856 295.019 61.2306 294.791 61.8566C294.168 63.7791 293.397 65.0724 292.31 66.7556Z"/><path fill="#C79B72" d="M294.496 33.538C284.901 33.3046 290.003 28.0729 291.764 23.3291C294.823 15.0921 300.407 10.4157 309.661 10.937C316.093 11.2994 319.683 15.7156 322.287 21.4731C323.302 22.0326 327.317 24.2589 327.155 25.7152C326.465 31.9353 328.813 29.0674 330.295 30.9127C335.565 37.47 344.988 38.2672 339.946 47.8249C338.019 45.8484 337.455 45.8364 335.045 44.7257C334.013 43.9489 333.215 44.0522 332.016 44.1407C328.67 46.0145 327.717 47.4915 325.525 50.6557C324.902 51.3935 324.263 52.1185 323.61 52.8302C319.113 57.6675 309.732 60.8474 305.502 53.9839C303.174 50.2071 306.265 46.7456 303.415 44.0748C299.702 41.0066 297.816 43.8343 298.026 36.8343C298.065 35.5544 295.59 34.1823 294.496 33.538Z"/><path fill="#F1BDA7" d="M298.607 30.3049C298.761 29.1464 298.794 27.8292 299.498 26.9442C302.09 25.011 305.884 29.1741 307.667 31.0246C307.644 29.8554 307.468 28.0575 307.996 27.0945C310.753 25.4436 313.047 30.2074 313.866 32.2424C316.716 39.324 323.488 41.526 330.242 43.6255C330.829 43.8092 331.421 43.9809 332.016 44.1407C328.67 46.0145 327.717 47.4915 325.525 50.6557C324.902 51.3935 324.263 52.1185 323.61 52.8302C319.113 57.6675 309.732 60.8474 305.502 53.9839C303.174 50.2071 306.265 46.7456 303.415 44.0748C299.702 41.0066 297.816 43.8343 298.026 36.8343C298.065 35.5544 295.59 34.1823 294.496 33.538C295.435 32.279 297.321 31.4329 298.607 30.3049Z"/><path fill="#89645E" d="M299.472 32.9131C300.936 32.9275 301.272 33.034 302.17 34.0883C302.443 35.1007 302.298 35.4378 302.029 36.4711C301.016 36.0777 299.998 35.8037 299.343 34.9484C299.035 34.0717 299.172 33.8168 299.472 32.9131Z"/><path fill="#EB7529" d="M332.016 44.1407C333.215 44.0522 334.013 43.9489 335.045 44.7257C337.455 45.8364 338.019 45.8484 339.946 47.8249C341.619 52.7698 343.767 59.3927 344.144 64.6237C347.671 69.9525 347.206 69.0252 347.057 75.4981C348.69 83.9283 345.833 85.7838 340.01 91.4871C339.49 92.8261 339.098 93.7729 338.789 95.1782C337.561 95.462 336.154 95.2631 334.88 95.1639C333.761 93.4987 332.778 92.5248 331.212 91.3068L326.004 90.8993L325.578 90.2424L325.491 90.2705C326.368 89.478 327.23 88.6697 328.078 87.8459C325.364 86.8462 321.545 85.9737 319.244 84.4506C317.651 86.612 317.511 88.6521 314.639 89.0681C319.12 84.5315 319.512 82.5376 320.274 76.4768C320.503 71.1387 321.384 69.7422 325.072 66.0864C325.625 65.3596 328.029 63.0125 328.787 62.2365C328.616 61.9702 328.455 61.6976 328.305 61.4191C326.552 58.2119 325.761 55.1057 326.8 51.5383L325.525 50.6557C327.717 47.4915 328.67 46.0145 332.016 44.1407Z"/><path fill="#F1BDA7" d="M332.016 44.1407C333.215 44.0522 334.013 43.9489 335.045 44.7257C337.455 45.8364 338.019 45.8484 339.946 47.8249C341.619 52.7698 343.767 59.3927 344.144 64.6237C337.692 68.6388 338.857 65.2836 333.081 62.6492C332.412 62.3443 329.702 62.2709 328.787 62.2365C328.616 61.9702 328.455 61.6976 328.305 61.4191C326.552 58.2119 325.761 55.1057 326.8 51.5383L325.525 50.6557C327.717 47.4915 328.67 46.0145 332.016 44.1407Z"/><path fill="#4AC1EB" d="M332.016 44.1407C333.215 44.0522 334.013 43.9489 335.045 44.7257C331.036 46.1465 328.874 47.9073 326.8 51.5383L325.525 50.6557C327.717 47.4915 328.67 46.0145 332.016 44.1407Z"/><path fill="#AB5F26" d="M325.072 66.0864C327.089 66.0298 328.92 65.7569 330.42 67.4073C333.781 71.1077 332.358 77.6841 332.299 82.2828C332.284 83.4303 331.788 84.0789 330.681 84.1746C328.864 83.3306 322.85 78.1176 320.274 76.4768C320.503 71.1387 321.384 69.7422 325.072 66.0864Z"/><path fill="#F1BDA7" d="M340.01 91.4871C338.609 90.0399 340.769 82.5683 341.793 80.8661C342.843 79.1231 345.209 74.866 346.761 73.7449L347.057 75.4981C348.69 83.9283 345.833 85.7838 340.01 91.4871Z"/><path fill="#C79B72" d="M270.61 60.8391C272.238 58.491 273.151 55.888 276.06 54.5132C280.696 52.3218 287.054 53.5824 291.797 55.0404C294.24 55.7912 294.881 56.5333 295.892 58.6718C295.941 59.3495 296.113 60.3695 295.752 60.8924L295.49 60.5603C295.129 61.0856 295.019 61.2306 294.791 61.8566C290.145 60.9926 288.48 61.39 284.056 62.4507C284.198 64.5452 284.317 66.6999 284.529 68.7837C283.062 67.5438 282.044 66.3626 280.109 66.5078C276.702 68.6794 280.873 73.179 278.678 76.016L278.603 75.9726C276.804 74.9219 273.72 71.862 272.488 70.1049C271.684 68.9578 270.902 64.6058 270.054 64.2257C262.136 69.602 270.558 85.8652 269.166 93.2358C268.856 94.8799 268.29 96.1213 267.685 97.6423C265.544 97.8487 263.277 97.8051 261.117 97.8081C261.676 97.6654 262.15 97.4969 262.693 97.308C263.305 96.3379 263.092 95.906 263.093 94.6213C263.563 92.721 263.242 90.1502 263.299 88.0068C263.484 80.9667 262.196 71.7767 264.378 65.104C265.167 62.6902 268.426 61.6935 270.61 60.8391Z"/><path fill="#F1BDA7" d="M303.298 44.7401C303.147 47.0544 303.046 51.5234 302.186 53.4634C298.516 61.7388 293.74 63.9067 301.411 72.596C301.62 72.8326 301.837 73.0624 302.061 73.2849C297.231 76.4506 292.724 80.3334 291.417 86.3246C291.367 86.5543 291.326 86.7856 291.292 87.0182L291.101 87.0539C290.917 84.9713 289.906 84.2472 288.452 82.77C286.876 82.6889 285.746 82.5976 284.186 82.3695C283.181 82.6978 283.068 82.8829 282.441 83.7598C281.233 82.7405 280.946 82.5761 279.481 81.977C277.728 81.7339 276.816 81.9964 275.072 82.3159C275.983 80.7225 277.318 78.9724 278.409 77.462C278.56 77.1651 278.629 76.3846 278.678 76.016C280.873 73.179 276.702 68.6794 280.109 66.5078C282.044 66.3626 283.062 67.5438 284.529 68.7837C284.317 66.6999 284.198 64.5452 284.056 62.4507C288.48 61.39 290.145 60.9926 294.791 61.8566C294.168 63.7791 293.397 65.0724 292.31 66.7556C293.119 68.7834 293.45 69.1309 295.036 70.4887C293.989 71.3635 293.008 71.9992 292.751 73.3363C292.988 74.3075 292.782 73.9878 293.566 74.6073C294.583 74.6368 294.212 74.744 295.055 74.1937C296.344 71.4307 295.123 65.2753 295.752 60.8924C296.113 60.3695 295.941 59.3495 295.892 58.6718C296.508 51.8078 295.392 47.6527 303.298 44.7401Z"/><path fill="#DD5B2F" d="M278.409 77.462C279.066 79.084 279.373 79.6846 280.693 80.9328L279.481 81.977C277.728 81.7339 276.816 81.9964 275.072 82.3159C275.983 80.7225 277.318 78.9724 278.409 77.462Z"/><path fill="#E13229" d="M280.693 80.9328C281.859 81.467 282.954 82.009 284.186 82.3695C283.181 82.6978 283.068 82.8829 282.441 83.7598C281.233 82.7405 280.946 82.5761 279.481 81.977L280.693 80.9328Z"/><path fill="#C79B72" d="M287.719 64.9608C288.901 64.9417 290.283 64.93 291.373 65.3599C291.963 66.1637 291.836 65.7981 291.777 66.8909C291.23 67.5794 291.06 67.9057 290.651 68.6893C290.634 68.9209 290.458 69.2909 290.362 69.5264C289.639 69.7209 289.911 69.7128 289.13 69.3176C288.049 67.8414 287.577 66.7898 287.719 64.9608Z"/><path fill="#FCD3AF" d="M287.118 77.5527C287.392 77.5424 287.866 77.6521 288.158 77.7082L288.423 78.2041C288.153 79.0056 287.276 79.643 286.62 80.2228C286.313 80.3407 285.947 80.2525 285.609 80.2075L285.446 79.6389C285.872 78.5299 286.227 78.2911 287.118 77.5527Z"/><path fill="#CADF8F" d="M225.361 50.1193C227.543 50.2288 241.556 51.0657 242.666 51.55C243.267 51.6827 243.675 51.4927 244.274 51.3141L244.345 51.3568C245.623 52.1119 247.865 52.7302 249.321 53.2103C253.379 54.5484 255.719 60.0528 256.532 63.9501C257.444 68.3253 261.026 91.7738 263.093 94.6213C263.092 95.906 263.305 96.3379 262.693 97.308C262.15 97.4969 261.676 97.6654 261.117 97.8081L248.645 97.767L229.664 97.7833C229.045 89.03 222.063 91.3328 215.394 90.8709C213.986 84.9657 213.174 65.8966 215.402 59.914C218.101 52.6636 219.92 52.8302 225.361 50.1193Z"/><path fill="#A0C95E" d="M244.274 51.3141L244.345 51.3568C245.623 52.1119 247.865 52.7302 249.321 53.2103C253.379 54.5484 255.719 60.0528 256.532 63.9501C257.444 68.3253 261.026 91.7738 263.093 94.6213C263.092 95.906 263.305 96.3379 262.693 97.308C262.15 97.4969 261.676 97.6654 261.117 97.8081L248.645 97.767C248.291 95.5501 246.73 92.1362 245.973 89.9227C244.15 85.0138 242.376 79.7836 240.243 75.009C237.313 68.4482 237.188 64.5672 237.567 57.574C239.046 55.3209 240.969 53.6885 242.666 51.55C243.267 51.6827 243.675 51.4927 244.274 51.3141Z"/><path fill="#F8942E" d="M410.903 74.9001C412.005 74.5174 413.114 74.1552 414.229 73.8137L414.557 74.106C414.508 79.9877 413.624 83.4307 412.272 89.1731C411.825 90.9123 411.112 94.3242 410.127 95.6667C410.517 96.5496 409.602 100.412 408.658 100.93L407.872 101.066L408.639 101.431C408.934 103.222 406.544 108.426 406.126 110.428C405.788 111.295 404.745 114.556 404.713 115.457C404.069 116.747 403.987 117.02 403.812 118.452L403.808 121.813C403.063 121.744 401.968 121.453 401.212 121.278C396.944 120.294 390.978 116.837 388.399 113.24C386.563 110.379 379.517 105.168 377.547 102.282C375.915 101.517 373.778 100.105 374.41 98.0459C374.08 97.3738 373.935 94.8746 374.126 94.0709C375.153 89.7572 379.979 87.5551 383.223 85.1637C385.345 83.6003 387.318 82.143 389.401 80.6921C392.45 79.7433 405.958 75.3969 408.083 76.2381L408.405 77.0565C408.75 77.2342 408.986 77.2216 409.38 77.2593C410.155 76.8921 410.525 75.7299 410.903 74.9001Z"/><path fill="#F8942E" d="M402.481 101.469L407.872 101.066L408.639 101.431C408.934 103.222 406.544 108.426 406.126 110.428C405.788 111.295 404.745 114.556 404.713 115.457C404.069 116.747 403.987 117.02 403.812 118.452L403.808 121.813C403.063 121.744 401.968 121.453 401.212 121.278C396.944 120.294 390.978 116.837 388.399 113.24C386.563 110.379 379.517 105.168 377.547 102.282C385.003 102.409 394.973 101.836 402.481 101.469Z"/><path fill="#EB7529" d="M402.481 101.469L407.872 101.066L408.639 101.431C408.934 103.222 406.544 108.426 406.126 110.428C405.788 111.295 404.745 114.556 404.713 115.457C404.069 116.747 403.987 117.02 403.812 118.452L403.808 121.813C403.063 121.744 401.968 121.453 401.212 121.278C400.951 117.015 401.584 105.519 402.481 101.469Z"/><path fill="#100C0B" d="M403.279 96.4847C403.577 95.7113 403.625 95.5962 404.169 94.9739C405.022 95.0916 404.883 95.1906 405.645 95.8904C406.908 96.0287 408.805 95.7889 410.127 95.6667C410.517 96.5496 409.602 100.412 408.658 100.93L407.872 101.066L402.481 101.469C394.973 101.836 385.003 102.409 377.547 102.282C375.915 101.517 373.778 100.105 374.41 98.0459C383.014 98.147 394.929 97.549 403.279 96.4847Z"/><path fill="#EB7529" d="M410.903 74.9001C412.005 74.5174 413.114 74.1552 414.229 73.8137L414.557 74.106C414.508 79.9877 413.624 83.4307 412.272 89.1731C411.825 90.9123 411.112 94.3242 410.127 95.6667C408.805 95.7889 406.908 96.0287 405.645 95.8904C405.203 93.7392 405.706 93.2924 404.126 91.725C404.997 90.8511 407.529 79.3439 408.405 77.0565C408.75 77.2342 408.986 77.2216 409.38 77.2593C410.155 76.8921 410.525 75.7299 410.903 74.9001Z"/><path fill="#2D0C0C" d="M404.126 91.725C405.706 93.2924 405.203 93.7392 405.645 95.8904C404.883 95.1906 405.022 95.0916 404.169 94.9739C403.625 95.5962 403.577 95.7113 403.279 96.4847C403.216 94.6763 403.097 93.3013 404.126 91.725Z"/><path fill="#F8942E" d="M164.621 44.8519L165.842 44.4078C166.986 46.1349 168.636 47.386 169.692 48.8818L169.022 49.2993C173.078 55.7867 171.223 57.1282 168.098 63.2913C166.023 67.4304 163.905 71.5475 161.743 75.6419C160.229 78.4978 158.034 82.3575 156.883 85.3127C154.827 87.9383 155.318 90.8824 155.355 94.2421L155.23 94.6454C150.343 95.1309 144.067 94.406 139.054 94.0364C139.347 90.0512 146.386 75.4638 148.063 70.7004C149.935 65.3855 152.074 58.0822 154.456 53.0742C156.597 48.5731 160.118 46.3894 164.621 44.8519Z"/><path fill="#633C16" d="M164.621 44.8519L165.842 44.4078C166.986 46.1349 168.636 47.386 169.692 48.8818L169.022 49.2993C167.799 47.7011 166.108 46.231 164.621 44.8519Z"/><path fill="#F8942E" d="M170.502 42.537L170.909 42.7023C173.535 44.0484 179.718 47.5223 182.351 47.5056C182.551 46.6048 182.772 45.7089 183.015 44.8188C184.484 46.897 187.362 48.9751 188.064 50.0748C190.075 53.2286 193.774 64.8507 194.473 68.2502L193.588 67.1853C192.805 67.8371 192.925 71.0401 192.806 72.2466L192.319 70.7478C188.345 72.0054 189.32 73.7178 187.389 74.3655C186.949 74.0938 186.904 74.0901 186.675 73.6446L186.392 72.7337C186.219 72.6843 186.008 72.6238 185.758 72.5522C181.817 74.3051 171.302 76.2426 168.291 77.7119C165.491 79.0775 160.223 84.6319 156.883 85.3127C158.034 82.3575 160.229 78.4978 161.743 75.6419C163.905 71.5475 166.023 67.4304 168.098 63.2913C171.223 57.1282 173.078 55.7867 169.022 49.2993L169.692 48.8818C168.636 47.386 166.986 46.1349 165.842 44.4078C167.2 43.5861 168.993 43.043 170.502 42.537Z"/><path fill="#100C0B" d="M169.692 48.8818C174.418 55.8425 174.219 61.6336 172.665 69.7539C172.551 70.3555 172.428 70.9555 172.298 71.5539C176.822 70.8785 184.639 70.5355 187.443 66.8085C189.64 68.0187 191.494 66.6657 192.682 68.4999C192.683 69.2548 192.684 70.055 192.319 70.7478C188.345 72.0054 189.32 73.7178 187.389 74.3655C186.949 74.0938 186.904 74.0901 186.675 73.6446L186.392 72.7337C186.219 72.6843 186.008 72.6238 185.758 72.5522C181.817 74.3051 171.302 76.2426 168.291 77.7119C165.491 79.0775 160.223 84.6319 156.883 85.3127C158.034 82.3575 160.229 78.4978 161.743 75.6419C163.905 71.5475 166.023 67.4304 168.098 63.2913C171.223 57.1282 173.078 55.7867 169.022 49.2993L169.692 48.8818Z"/><path fill="#100C0B" d="M185.582 59.2713C180.251 62.4111 170.678 43.704 170.909 42.7023C173.535 44.0484 179.718 47.5223 182.351 47.5056C182.551 46.6048 182.772 45.7089 183.015 44.8188C184.484 46.897 187.362 48.9751 188.064 50.0748C190.075 53.2286 193.774 64.8507 194.473 68.2502L193.588 67.1853C192.805 67.8371 192.925 71.0401 192.806 72.2466L192.319 70.7478C192.684 70.055 192.683 69.2548 192.682 68.4999C191.494 66.6657 189.64 68.0187 187.443 66.8085C187.195 65.0166 186.754 60.3544 185.582 59.2713Z"/><path fill="#EB7529" d="M182.351 47.5056C182.551 46.6048 182.772 45.7089 183.015 44.8188C184.484 46.897 187.362 48.9751 188.064 50.0748C190.075 53.2286 193.774 64.8507 194.473 68.2502L193.588 67.1853C192.805 67.8371 192.925 71.0401 192.806 72.2466L192.319 70.7478C192.684 70.055 192.683 69.2548 192.682 68.4999C191.494 66.6657 189.64 68.0187 187.443 66.8085C187.195 65.0166 186.754 60.3544 185.582 59.2713C186.696 56.1838 185.544 48.501 182.351 47.5056Z"/><path fill="#F8942E" d="M390.306 43.6133C393.372 43.9298 397.267 48.0821 404.101 49.0318C405.217 48.7546 405.178 48.4371 405.38 47.5168L405.454 47.6677C405.917 48.7697 406.408 49.1583 406.954 50.1116C408.154 52.2051 409.375 54.6949 409.932 57.0317C411.966 61.5572 412.76 64.5193 414.049 69.3565C414.335 70.4425 414.75 73.0847 414.557 74.106L414.229 73.8137C413.114 74.1552 412.005 74.5174 410.903 74.9001C410.525 75.7299 410.155 76.8921 409.38 77.2593C408.986 77.2216 408.75 77.2342 408.405 77.0565L408.083 76.2381C405.958 75.3969 392.45 79.7433 389.401 80.6921C389.361 79.229 392.108 75.8739 393.182 74.8685C393.14 72.7255 394.509 67.676 394.568 64.6237C394.681 58.7961 393.511 54.2643 389.663 49.7025C388.427 48.2372 387.096 47.5085 386.011 46.2761L385.885 46.1306C386.827 45.4646 389.205 44.226 390.306 43.6133Z"/><path fill="#C7272C" d="M390.306 43.6133C393.372 43.9298 397.267 48.0821 404.101 49.0318C405.217 48.7546 405.178 48.4371 405.38 47.5168L405.454 47.6677C405.917 48.7697 406.408 49.1583 406.954 50.1116C408.154 52.2051 409.375 54.6949 409.932 57.0317C409.346 56.4088 408.904 55.8925 408.183 55.4142C407.66 55.9108 407.83 56.0614 407.764 57.0158C407.993 58.7194 408.281 59.6864 407.219 61.0883C407.139 61.1939 407.057 61.2979 406.972 61.4002C403.064 64.1636 399.269 57.7377 397.448 54.9008C395.018 51.1157 392.916 47.3192 390.306 43.6133Z"/><path fill="#DD5B2F" d="M405.38 47.5168L405.454 47.6677C405.917 48.7697 406.408 49.1583 406.954 50.1116C408.154 52.2051 409.375 54.6949 409.932 57.0317C409.346 56.4088 408.904 55.8925 408.183 55.4142C407.66 55.9108 407.83 56.0614 407.764 57.0158C407.687 56.6337 407.593 56.2552 407.483 55.8811C407.075 54.5361 405.252 49.6564 404.101 49.0318C405.217 48.7546 405.178 48.4371 405.38 47.5168Z"/><path fill="#100C0B" d="M414.049 69.3565C414.335 70.4425 414.75 73.0847 414.557 74.106L414.229 73.8137C413.114 74.1552 412.005 74.5174 410.903 74.9001C410.525 75.7299 410.155 76.8921 409.38 77.2593C408.986 77.2216 408.75 77.2342 408.405 77.0565L408.083 76.2381C405.958 75.3969 392.45 79.7433 389.401 80.6921C389.361 79.229 392.108 75.8739 393.182 74.8685C397.645 73.6293 403.195 72.8074 407.677 71.384C408.237 71.2061 408.261 70.7362 408.436 70.1863C409.613 69.4986 411.084 71.075 413.753 70.0323L414.049 69.3565Z"/><path fill="#EB7529" d="M407.764 57.0158C407.83 56.0614 407.66 55.9108 408.183 55.4142C408.904 55.8925 409.346 56.4088 409.932 57.0317C411.966 61.5572 412.76 64.5193 414.049 69.3565L413.753 70.0323C411.084 71.075 409.613 69.4986 408.436 70.1863C408.465 69.9193 408.486 69.6829 408.552 69.4223L408.59 69.2785C409.033 67.5227 408.484 63.4318 407.692 61.6755C407.609 61.4913 407.244 61.4678 406.972 61.4002C407.057 61.2979 407.139 61.1939 407.219 61.0883C408.281 59.6864 407.993 58.7194 407.764 57.0158Z"/><path fill="#F8942E" d="M156.883 85.3127C160.223 84.6319 165.491 79.0775 168.291 77.7119C171.302 76.2426 181.817 74.3051 185.758 72.5522C186.008 72.6238 186.219 72.6843 186.392 72.7337L186.675 73.6446C185.559 77.581 184.92 81.7699 183.909 85.7441C183.478 87.4414 183.881 87.8787 182.03 88.0663L181.498 92.4105C177.884 92.8203 156.362 93.7793 155.355 94.2421C155.318 90.8824 154.827 87.9383 156.883 85.3127Z"/><path fill="#F8942E" d="M192.806 72.2466C192.925 71.0401 192.805 67.8371 193.588 67.1853L194.473 68.2502C197.055 77.5315 198.458 82.3737 203.068 90.8432C194.569 91.8938 199.364 97.5241 192.917 97.0687C192.012 95.6855 190.29 92.8543 189.181 91.8193L188.778 91.8352C188.003 91.2546 185.379 91.7027 184.303 91.8146C184.312 90.8399 184.344 90.1136 184.174 89.1414C183.422 88.2665 183.255 88.4278 182.03 88.0663C183.881 87.8787 183.478 87.4414 183.909 85.7441C184.92 81.7699 185.559 77.581 186.675 73.6446C186.904 74.0901 186.949 74.0938 187.389 74.3655C189.32 73.7178 188.345 72.0054 192.319 70.7478L192.806 72.2466Z"/><path fill="#EB7529" d="M186.675 73.6446C186.904 74.0901 186.949 74.0938 187.389 74.3655C189.32 73.7178 188.345 72.0054 192.319 70.7478L192.806 72.2466C192.222 77.6105 190.814 86.5967 189.181 91.8193L188.778 91.8352C188.003 91.2546 185.379 91.7027 184.303 91.8146C184.312 90.8399 184.344 90.1136 184.174 89.1414C183.422 88.2665 183.255 88.4278 182.03 88.0663C183.881 87.8787 183.478 87.4414 183.909 85.7441C184.92 81.7699 185.559 77.581 186.675 73.6446Z"/><path fill="#AFC7CA" d="M275.072 82.3159C276.816 81.9964 277.728 81.7339 279.481 81.977C280.946 82.5761 281.233 82.7405 282.441 83.7598C283.068 82.8829 283.181 82.6978 284.186 82.3695C285.746 82.5976 286.876 82.6889 288.452 82.77C289.906 84.2472 290.917 84.9713 291.101 87.0539L291.292 87.0182C291.363 99.0075 295.315 95.5593 303.716 92.3174C302.619 93.864 301.798 94.9953 301.37 96.8816C299.149 97.1961 284.753 97.6882 283.103 97.2832C281.351 97.7153 275.67 98.3146 274.082 97.6066L273.839 97.495C272.778 93 270.351 89.8091 273.832 85.7399C274.264 84.6054 274.677 83.4639 275.072 82.3159Z"/><path fill="#F1BDA7" d="M273.832 85.7399C274.586 86.9659 277.252 90.3917 277.646 91.2516C279.005 92.6497 282.211 95.8035 283.103 97.2832C281.351 97.7153 275.67 98.3146 274.082 97.6066L273.839 97.495C272.778 93 270.351 89.8091 273.832 85.7399Z"/><path fill="#DD5B2F" d="M277.646 91.2516C279.005 92.6497 282.211 95.8035 283.103 97.2832C281.351 97.7153 275.67 98.3146 274.082 97.6066C276.492 97.5431 278.99 97.553 281.408 97.5316C281.166 97.2881 280.926 97.0415 280.69 96.7916C279.44 95.4651 277.586 93.1658 277.646 91.2516Z"/><path fill="#DD5B2F" d="M284.186 82.3695C285.746 82.5976 286.876 82.6889 288.452 82.77C289.906 84.2472 290.917 84.9713 291.101 87.0539C290.59 88.835 290.707 90.5899 290.816 92.4109C288.212 90.2238 284.828 86.3422 282.441 83.7598C283.068 82.8829 283.181 82.6978 284.186 82.3695Z"/><path fill="#100C0B" d="M182.03 88.0663C183.255 88.4278 183.422 88.2665 184.174 89.1414C184.344 90.1136 184.312 90.8399 184.303 91.8146C185.379 91.7027 188.003 91.2546 188.778 91.8352C188.145 93.301 187.693 95.132 187.261 96.694C186.56 96.5652 185.382 96.6239 184.612 96.5795C178.345 96.1874 172.091 95.7158 165.82 95.4146C163.89 95.3219 156.305 95.5331 155.23 94.6454L155.355 94.2421C156.362 93.7793 177.884 92.8203 181.498 92.4105L182.03 88.0663Z"/><path fill="#C7272C" d="M303.716 92.3174C304.861 91.6883 305.291 91.4287 306.584 91.0882C305.803 92.6362 304.932 91.8264 304.659 92.7206L304.7 92.6813C306.025 92.5276 308.933 92.0841 310.029 92.7741C310.223 93.7003 310.252 93.3357 309.84 94.2433L309.482 94.3335L309.293 93.9303C307.579 95.2124 305.397 97.2912 303.146 96.8841C302.909 96.9157 301.686 96.884 301.37 96.8816C301.798 94.9953 302.619 93.864 303.716 92.3174Z"/><path fill="#F7F7F7" d="M303.146 96.8841C303.996 94.4439 306.787 92.3171 309.2 93.4563L309.293 93.9303C307.579 95.2124 305.397 97.2912 303.146 96.8841Z"/><path fill="#CADF8F" d="M215.587 93.4257C218.916 93.2348 225.899 92.2681 227.84 95.5205C227.671 98.9243 218.141 97.8182 215.788 97.4554C215.826 95.9377 215.735 94.9405 215.587 93.4257Z"/><path fill="#F8942E" d="M206.538 97.1399C204.886 98.1526 199.802 98.2017 198.746 95.4749C199.415 92.7469 202.448 93.2195 204.601 93.4937C205.162 94.568 205.928 96.1455 206.538 97.1399Z"/><path fill="#EB7529" d="M324.58 93.5002C326.502 93.423 330.85 93.1063 332.212 94.6341C332.215 94.7486 332.022 95.0387 331.95 95.1673L330.669 95.2578C329.027 95.371 323.897 96.0261 322.972 94.8383C323.465 93.9617 323.651 94.0423 324.58 93.5002Z"/><path fill="#AFC7CA" d="M112.583 110.019C120.717 110.246 128.706 111.091 136.808 111.538L182.481 113.647C220.42 115.162 258.39 115.778 296.359 115.494C304.295 115.423 312.229 115.281 320.163 115.07C324.603 114.93 370.76 112.866 372.307 113.427L372.521 113.896C372.485 115.271 372.673 117.088 371.406 117.925C371.193 118.263 370.673 119.139 370.457 119.408C367.246 120.705 365.878 124.253 364.157 125.532C364.042 126.575 364.205 126.204 363.463 126.994C361.24 129.845 361.261 136.423 361.662 139.836C362.238 144.738 364.269 148.885 366.319 153.293C366.801 154.385 368.843 159.136 369.423 159.859C366.034 158.109 317.573 158.274 309.733 158.206C249.987 157.839 190.258 156.093 130.593 152.969C128.831 152.019 125.581 148.624 124.61 146.84C124.425 146.383 122.753 144.595 122.291 144.11C117.511 139.091 110.607 130.684 111.569 123.288C110.99 122.502 110.851 119.199 111.459 118.248L112.648 118.005L111.422 117.762C110.773 117.177 110.963 116.918 110.899 115.84L111.382 114.638C111.638 112.94 112.075 111.642 112.583 110.019Z"/><path fill="#100C0B" d="M112.583 110.019C120.717 110.246 128.706 111.091 136.808 111.538L182.481 113.647C220.42 115.162 258.39 115.778 296.359 115.494C304.295 115.423 312.229 115.281 320.163 115.07C324.603 114.93 370.76 112.866 372.307 113.427L372.521 113.896C372.485 115.271 372.673 117.088 371.406 117.925C371.193 118.263 370.673 119.139 370.457 119.408C367.246 120.705 365.878 124.253 364.157 125.532C364.042 126.575 364.205 126.204 363.463 126.994C360.186 125.272 358.472 123.156 356.205 120.304C350.903 135.25 330.428 139.879 316.804 134.786C313.169 133.428 309.218 131.196 306.215 128.716C304.748 128.116 300.272 127.833 299.073 128.918C297.28 130.388 295.554 131.815 293.577 133.036C279.574 141.686 258.229 139.197 249.098 124.781C246.413 127.956 244.283 130.379 240.714 132.701C231.196 138.94 217.826 139.224 207.552 134.726C204.305 133.304 199.834 130.178 197.865 127.177C198.045 126.809 198.252 126.709 198.59 126.457C199.657 126.488 199.268 126.373 200.182 126.919C202.1 125.914 204.275 128.015 205.451 124.392C205.751 123.467 205.702 123.404 205.309 122.553C203.301 120.931 199.631 121.8 197.178 121.208C196.687 121.089 196.671 120.71 196.44 120.153C196.399 121.055 196.444 121.167 195.801 121.728L195.27 121.597C194.241 120.481 194.523 120.797 194.234 119.183L194.056 118.817C193.294 118.222 182.209 118.153 180.405 118.105C157.377 117.391 134.365 116.235 111.382 114.638C111.638 112.94 112.075 111.642 112.583 110.019Z"/><path fill="#AFC7CA" d="M249.871 120.538C253.612 120.27 300.421 120.325 301.047 120.743C301.067 121.65 300.835 121.698 300.287 122.575C300.961 123.022 303.065 123.102 303.75 122.963C303.971 122.916 304.187 122.844 304.392 122.748L304.479 122.766C307.305 123.321 311.4 121.764 313.335 123.518C313.979 124.495 313.896 127.072 312.873 127.773C311.817 128.495 310.935 127.796 310.291 129.226C308.45 128.757 308.245 127.286 306.215 128.716C304.748 128.116 300.272 127.833 299.073 128.918C298.851 128.477 298.697 128.449 298.242 128.197C297.328 128.092 296.727 128.545 295.93 129.001C292.74 131.444 288.869 133.532 285.032 134.742C272.982 138.542 253.784 134.228 249.871 120.538Z"/><path fill="#989896" d="M300.287 122.575C300.961 123.022 303.065 123.102 303.75 122.963C303.971 122.916 304.187 122.844 304.392 122.748L304.479 122.766C307.305 123.321 311.4 121.764 313.335 123.518C313.979 124.495 313.896 127.072 312.873 127.773C311.817 128.495 310.935 127.796 310.291 129.226C308.45 128.757 308.245 127.286 306.215 128.716C304.748 128.116 300.272 127.833 299.073 128.918C298.851 128.477 298.697 128.449 298.242 128.197C297.328 128.092 296.727 128.545 295.93 129.001C294.476 127.817 292.102 128.644 290.212 127.556C289.527 126.73 289.651 124.32 290.416 123.765C292.589 122.189 297.491 122.767 300.287 122.575Z"/><path fill="#AFC7CA" d="M196.44 120.153L196.387 119.179C197.084 118.581 197.542 118.612 198.52 118.678C209.361 119.412 220.276 119.596 231.132 119.939C236.314 120.103 243.063 120.03 248.033 120.55C244.975 127.498 240.841 131.382 233.701 134.003C223.037 137.919 207.745 135.598 200.182 126.919C202.1 125.914 204.275 128.015 205.451 124.392C205.751 123.467 205.702 123.404 205.309 122.553C203.301 120.931 199.631 121.8 197.178 121.208C196.687 121.089 196.671 120.71 196.44 120.153Z"/><path fill="#AFC7CA" d="M304.392 122.748C304.029 122.068 303.476 121.284 303.651 120.574C304.252 120.133 310.741 120.218 311.912 120.196C321.128 119.99 330.34 119.647 339.546 119.168C343.812 118.96 350.771 118.408 354.776 118.526C351.633 125.739 348.244 129.398 340.82 132.418C330.274 136.708 319.784 135.112 310.291 129.226C310.935 127.796 311.817 128.495 312.873 127.773C313.896 127.072 313.979 124.495 313.335 123.518C311.4 121.764 307.305 123.321 304.479 122.766L304.392 122.748Z"/><path fill="#B4B3B3" d="M357.116 118.341C361.877 118.143 366.641 118.004 371.406 117.925C371.193 118.263 370.673 119.139 370.457 119.408C367.246 120.705 365.878 124.253 364.157 125.532C361.72 123.523 359.234 120.686 357.116 118.341Z"/><path fill="#5F777C" d="M124.61 146.84C129.043 148.453 146.422 149.964 151.211 150.229C163.402 150.907 175.602 151.398 187.807 151.702C242.235 152.867 296.672 153.481 351.112 153.546C353.084 153.541 365.638 153.623 366.319 153.293C366.801 154.385 368.843 159.136 369.423 159.859C366.034 158.109 317.573 158.274 309.733 158.206C249.987 157.839 190.258 156.093 130.593 152.969C128.831 152.019 125.581 148.624 124.61 146.84Z"/><path fill="#989896" d="M194.234 119.183C194.523 120.797 194.241 120.481 195.27 121.597L195.801 121.728C196.444 121.167 196.399 121.055 196.44 120.153C196.671 120.71 196.687 121.089 197.178 121.208C199.631 121.8 203.301 120.931 205.309 122.553C205.702 123.404 205.751 123.467 205.451 124.392C204.275 128.015 202.1 125.914 200.182 126.919C199.268 126.373 199.657 126.488 198.59 126.457C198.252 126.709 198.045 126.809 197.865 127.177L197.479 126.692C195.623 126.315 183.903 126.277 181.297 126.235C181.198 124.548 181.383 123.059 181.548 121.388C185.51 121.254 189.98 121.633 193.761 121.36C194.312 120.686 194.167 120.177 194.234 119.183Z"/><path fill="#989896" d="M112.648 118.005C116.56 118.583 125.064 117.548 127.666 118.531C128.469 119.705 128.529 121.681 127.755 122.87C125.961 123.769 114.464 123.253 111.569 123.288C110.99 122.502 110.851 119.199 111.459 118.248L112.648 118.005Z"/><path fill="#E13229" d="M473.147 41.0132L473.962 41.7843C477.581 41.825 482.237 46.0433 487.102 45.3536C488.052 44.956 488.01 44.9717 488.359 44.0831C489.874 44.7144 492.108 45.5401 493.117 46.8305C492.999 48.4076 494.802 50.2644 495.063 52.1227C495.303 53.8329 495.261 56.3972 495.112 58.0959C495.487 61.0702 495.848 63.5611 496.475 66.4993C496.708 67.4883 497.31 69.7474 497.282 70.638C498.496 75.6921 507.665 73.5555 510.464 78.0845C512.766 81.8109 517.508 88.8223 518.871 92.8402C505.867 96.4717 492.693 99.4608 479.396 101.797C469.423 103.524 459.147 104.672 449.124 106.047C435.093 107.973 420.263 109.717 406.126 110.428C406.544 108.426 408.934 103.222 408.639 101.431L407.872 101.066L408.658 100.93C409.602 100.412 410.517 96.5496 410.127 95.6667C411.112 94.3242 411.825 90.9123 412.272 89.1731C413.062 89.7307 416.415 89.1248 417.555 88.9815C421.755 84.3661 426.026 73.9372 430.024 68.733C431.223 67.1722 433.629 61.8769 435.854 61.6113C441.943 60.8844 448.098 62.1303 454.124 62.3859C454.183 61.9955 454.26 61.6081 454.355 61.2248C456.775 51.4185 461.693 48.0726 469.563 43.2823C470.971 42.2337 471.583 41.7861 473.147 41.0132Z"/><path fill="#C7272C" d="M473.147 41.0132L473.962 41.7843C477.581 41.825 482.237 46.0433 487.102 45.3536C488.052 44.956 488.01 44.9717 488.359 44.0831C489.874 44.7144 492.108 45.5401 493.117 46.8305C492.999 48.4076 494.802 50.2644 495.063 52.1227C495.303 53.8329 495.261 56.3972 495.112 58.0959C495.487 61.0702 495.848 63.5611 496.475 66.4993C493.362 66.5928 488.084 67.5024 485.64 69.2483C484.553 68.9408 477.745 67.2462 477.317 66.9692C476.048 66.6108 473.86 66.3398 472.348 65.9653C466.241 64.4532 460.353 63.3188 454.124 62.3859C454.183 61.9955 454.26 61.6081 454.355 61.2248C456.775 51.4185 461.693 48.0726 469.563 43.2823C470.971 42.2337 471.583 41.7861 473.147 41.0132Z"/><path fill="#989896" d="M454.124 62.3859C454.183 61.9955 454.26 61.6081 454.355 61.2248C456.775 51.4185 461.693 48.0726 469.563 43.2823C475.025 48.736 477.421 53.423 477.426 61.1919C477.418 63.1181 477.382 65.0441 477.317 66.9692C476.048 66.6108 473.86 66.3398 472.348 65.9653C466.241 64.4532 460.353 63.3188 454.124 62.3859Z"/><path fill="#B4B3B3" d="M473.962 41.7843C477.581 41.825 482.237 46.0433 487.102 45.3536C487.392 48.2197 491.022 52.4512 490.261 56.0832C489.653 58.9884 487.511 60.0389 485.315 57.8543C480.782 53.3444 477.482 47.1712 473.962 41.7843Z"/><path fill="#A49193" d="M488.359 44.0831C489.874 44.7144 492.108 45.5401 493.117 46.8305C492.999 48.4076 494.802 50.2644 495.063 52.1227C495.303 53.8329 495.261 56.3972 495.112 58.0959C492.387 54.6516 491.78 48.6481 488.347 45.5992C488.107 45.3859 487.457 45.3919 487.102 45.3536C488.052 44.956 488.01 44.9717 488.359 44.0831Z"/><path fill="#2D0C0C" d="M496.475 66.4993C496.708 67.4883 497.31 69.7474 497.282 70.638C495.193 70.2336 495.083 71.0216 493.568 71.118C491.374 71.2576 487.788 69.9417 485.64 69.2483C488.084 67.5024 493.362 66.5928 496.475 66.4993Z"/><path fill="#AFC7CA" d="M518.871 92.8402C520.595 92.2925 523.069 91.5098 524.028 93.6622C523.588 96.5304 520.497 97.4663 518.137 98.0951C518.453 103.335 515.169 107.759 513.524 112.904C512.822 114.183 511.664 116.403 511.092 117.738C510.246 118.904 508.547 121.053 508.438 122.425C508.067 124.76 505.772 126.759 504.991 128.292C501.465 130.542 497.169 133.46 493.472 135.069C471.504 144.633 447.213 148.513 423.525 151.011C420.98 151.279 416.965 151.66 414.539 152.212C412.575 148.571 410.723 144.882 408.748 141.237C411.063 137.547 410.932 127.283 410.716 122.819C407.972 122.798 406.382 122.743 403.808 121.813L403.812 118.452C403.987 117.02 404.069 116.747 404.713 115.457C404.745 114.556 405.788 111.295 406.126 110.428C420.263 109.717 435.093 107.973 449.124 106.047C459.147 104.672 469.423 103.524 479.396 101.797C492.693 99.4608 505.867 96.4717 518.871 92.8402Z"/><path fill="#100C0B" d="M518.871 92.8402C520.595 92.2925 523.069 91.5098 524.028 93.6622C523.588 96.5304 520.497 97.4663 518.137 98.0951C510.775 99.8636 503.637 101.795 496.181 103.264C472.674 107.894 448.946 111.373 425.09 113.624C422.455 113.873 411.057 114.313 409.531 115.744C409.369 116.401 409.172 117.127 409.066 117.788C408.498 117.771 407.696 118.076 406.563 118.031L406.095 117.444C405.231 118.15 404.913 118.186 403.812 118.452C403.987 117.02 404.069 116.747 404.713 115.457C404.745 114.556 405.788 111.295 406.126 110.428C420.263 109.717 435.093 107.973 449.124 106.047C459.147 104.672 469.423 103.524 479.396 101.797C492.693 99.4608 505.867 96.4717 518.871 92.8402Z"/><path fill="#B4B3B3" d="M404.713 115.457C405.491 115.368 406.14 115.189 406.764 115.633C406.892 116.471 406.642 116.739 406.095 117.444C405.231 118.15 404.913 118.186 403.812 118.452C403.987 117.02 404.069 116.747 404.713 115.457Z"/><path fill="#989896" d="M403.812 118.452C404.913 118.186 405.231 118.15 406.095 117.444L406.563 118.031C407.696 118.076 408.498 117.771 409.066 117.788L409.145 117.809C412.01 118.545 420.288 117.042 422.356 118.599C422.684 119.912 422.539 121.152 422.469 122.504C419.5 122.974 413.881 122.836 410.716 122.819C407.972 122.798 406.382 122.743 403.808 121.813L403.812 118.452Z"/><path fill="#B4B3B3" d="M121.209 67.4091C121.597 69.0411 121.528 71.2255 121.542 72.9423C121.451 79.8993 119.524 85.3652 117.69 92.0537C117.467 92.9972 117.629 92.6766 116.817 93.3647C117.192 94.415 116.585 97.604 115.92 98.5021C115.371 100.295 112.707 108.658 112.583 110.019C112.075 111.642 111.638 112.94 111.382 114.638L110.899 115.84C110.963 116.918 110.773 117.177 111.422 117.762L112.648 118.005L111.459 118.248C110.851 119.199 110.99 122.502 111.569 123.288C110.607 130.684 117.511 139.091 122.291 144.11C122.753 144.595 124.425 146.383 124.61 146.84C125.581 148.624 128.831 152.019 130.593 152.969C131.084 155.408 135.804 159.468 137.758 161.79C136.062 163.077 134.132 161.162 132.358 161.326C128.845 161.649 126.916 163.616 122.948 164.535C119.245 163.591 117.756 161.948 114.287 161.133C110.752 160.302 107.006 164.65 103.771 164.243C99.9919 163.766 98.4209 161.642 94.1234 160.875C90.9386 161.143 88.1587 163.436 85.3107 164.035C82.5232 164.621 78.9957 161.513 76.7741 159.839C71.8463 152.303 68.3224 143.104 68.8826 134.002C69.0631 129.376 70.7683 126.473 71.1511 122.38C73.0569 121.796 77.8092 115.722 79.2323 114.032C80.1778 111.313 80.927 102.932 81.1199 100.075C81.0525 98.7577 81.1054 96.9854 81.1047 95.6316L80.8497 95.4271C81.9117 92.2247 80.1827 90.0515 84.0157 86.2098C87.2674 85.3446 93.2563 80.4734 95.8316 78.1636C97.6602 75.89 98.3602 74.6823 99.7389 72.1728C103.241 71.8675 109.7 70.6554 113.127 69.6913C114.581 69.2823 114.704 68.5723 115.242 67.3968C117.61 67.9108 118.84 67.8388 121.209 67.4091Z"/><path fill="#F8942E" d="M121.209 67.4091C121.597 69.0411 121.528 71.2255 121.542 72.9423C121.451 79.8993 119.524 85.3652 117.69 92.0537C117.467 92.9972 117.629 92.6766 116.817 93.3647C117.192 94.415 116.585 97.604 115.92 98.5021C115.06 98.5679 109.007 98.9615 108.494 99.0854L89.3257 99.8806C86.8921 99.9664 83.4163 99.9087 81.1199 100.075C81.0525 98.7577 81.1054 96.9854 81.1047 95.6316L80.8497 95.4271C81.9117 92.2247 80.1827 90.0515 84.0157 86.2098C87.2674 85.3446 93.2563 80.4734 95.8316 78.1636C97.6602 75.89 98.3602 74.6823 99.7389 72.1728C103.241 71.8675 109.7 70.6554 113.127 69.6913C114.581 69.2823 114.704 68.5723 115.242 67.3968C117.61 67.9108 118.84 67.8388 121.209 67.4091Z"/><path fill="#100C0B" d="M111.47 89.4575C112.703 90.6314 112.586 92.2471 112.704 93.9652C113.718 93.8492 115.949 93.6501 116.817 93.3647C117.192 94.415 116.585 97.604 115.92 98.5021C115.06 98.5679 109.007 98.9615 108.494 99.0854L89.3257 99.8806C86.8921 99.9664 83.4163 99.9087 81.1199 100.075C81.0525 98.7577 81.1054 96.9854 81.1047 95.6316C88.1321 95.7908 103.376 95.1374 110.069 94.2221C109.9 91.7331 109.299 90.9209 111.47 89.4575Z"/><path fill="#EB7529" d="M114.714 73.4137C115.19 74.655 114.922 74.4862 115.835 75.1314C117.309 74.7605 118.478 70.3923 121.421 71.7016L121.542 72.9423C121.451 79.8993 119.524 85.3652 117.69 92.0537C117.467 92.9972 117.629 92.6766 116.817 93.3647C115.949 93.6501 113.718 93.8492 112.704 93.9652C112.586 92.2471 112.703 90.6314 111.47 89.4575C111.49 88.8338 112.217 86.5375 112.406 85.7714C113.156 82.7194 114.871 76.3869 114.714 73.4137Z"/><path fill="#100C0B" d="M121.209 67.4091C121.597 69.0411 121.528 71.2255 121.542 72.9423L121.421 71.7016C118.478 70.3923 117.309 74.7605 115.835 75.1314C114.922 74.4862 115.19 74.655 114.714 73.4137C111.943 74.1842 97.7957 78.2524 95.8316 78.1636C97.6602 75.89 98.3602 74.6823 99.7389 72.1728C103.241 71.8675 109.7 70.6554 113.127 69.6913C114.581 69.2823 114.704 68.5723 115.242 67.3968C117.61 67.9108 118.84 67.8388 121.209 67.4091Z"/><path fill="#F8942E" d="M108.494 99.0854C109.007 98.9615 115.06 98.5679 115.92 98.5021C115.371 100.295 112.707 108.658 112.583 110.019C112.075 111.642 111.638 112.94 111.382 114.638L110.899 115.84C110.596 117.073 110.466 118.689 109.684 119.416C108.967 119.666 108.623 119.618 107.87 119.595C106.827 119.4 103.92 119.253 102.661 119.115C98.7972 118.694 95.175 118.277 91.3377 117.602C87.0067 116.839 83.4792 115.15 79.2323 114.032C80.1778 111.313 80.927 102.932 81.1199 100.075C83.4163 99.9087 86.8921 99.9664 89.3257 99.8806L108.494 99.0854Z"/><path fill="#EB7529" d="M108.494 99.0854C109.007 98.9615 115.06 98.5679 115.92 98.5021C115.371 100.295 112.707 108.658 112.583 110.019C112.075 111.642 111.638 112.94 111.382 114.638L110.899 115.84C110.596 117.073 110.466 118.689 109.684 119.416C108.967 119.666 108.623 119.618 107.87 119.595C107.181 117.775 109.651 102.936 109.083 99.5042L108.494 99.0854Z"/><path fill="#989896" d="M68.8826 134.002C69.1669 136.101 69.9569 140.544 70.9608 142.057C72.8847 144.957 92.2821 160.704 94.1234 160.875C90.9386 161.143 88.1587 163.436 85.3107 164.035C82.5232 164.621 78.9957 161.513 76.7741 159.839C71.8463 152.303 68.3224 143.104 68.8826 134.002Z"/><path fill="#633C16" d="M388.399 113.24C390.978 116.837 396.944 120.294 401.212 121.278C401.968 121.453 403.063 121.744 403.808 121.813C406.382 122.743 407.972 122.798 410.716 122.819C410.932 127.283 411.063 137.547 408.748 141.237C410.723 144.882 412.575 148.571 414.539 152.212C415.511 154.247 417.358 158.413 418.452 160.207C414.039 161.434 413.098 162.865 409.701 164.221C406.648 162.817 405.039 161.364 401.845 160.329C397.1 161.547 396.704 162.884 393.232 164.34C390.38 163.05 385.999 159 383.085 160.841C377.241 164.533 377.421 165.199 370.996 160.875L369.423 159.859C368.843 159.136 366.801 154.385 366.319 153.293C364.269 148.885 362.238 144.738 361.662 139.836C361.261 136.423 361.24 129.845 363.463 126.994C364.205 126.204 364.042 126.575 364.157 125.532C365.878 124.253 367.246 120.705 370.457 119.408C370.673 119.139 371.193 118.263 371.406 117.925C372.673 117.088 372.485 115.271 372.521 113.896C372.698 113.861 372.906 113.821 373.146 113.775C375.499 115.241 380.995 118.123 382.974 119.464C383.181 119.605 383.384 119.752 383.583 119.903C385.513 116.573 385.411 115.864 388.399 113.24Z"/><path fill="#F1BDA7" d="M388.399 113.24C390.978 116.837 396.944 120.294 401.212 121.278C401.968 121.453 403.063 121.744 403.808 121.813C406.382 122.743 407.972 122.798 410.716 122.819C410.932 127.283 411.063 137.547 408.748 141.237L406.261 136.408C405.905 137.679 405.98 139.078 404.486 139.224C403.404 138.576 403.534 137.709 402.496 136.818C401.519 137.131 401.434 137.988 400.4 138.958C399.782 138.707 395.233 130.345 394.159 128.965C391.897 126.059 390.988 125.032 387.854 122.959C386.152 120.905 384.97 121.32 383.583 119.903C385.513 116.573 385.411 115.864 388.399 113.24Z"/><path fill="#F8942E" d="M372.521 113.896C372.698 113.861 372.906 113.821 373.146 113.775C375.499 115.241 380.995 118.123 382.974 119.464C383.181 119.605 383.384 119.752 383.583 119.903C384.97 121.32 386.152 120.905 387.854 122.959C384.978 122.938 372.713 120.815 370.457 119.408C370.673 119.139 371.193 118.263 371.406 117.925C372.673 117.088 372.485 115.271 372.521 113.896Z"/><path fill="#5F777C" d="M504.991 128.292C504.322 129.964 502.265 132.29 501.193 133.813C496.684 140.217 488.959 148.775 481.323 151.644C467.558 156.816 448.707 157.942 434.052 159.121C431.279 159.344 421.956 159.402 419.95 160.013L418.452 160.207C417.358 158.413 415.511 154.247 414.539 152.212C416.965 151.66 420.98 151.279 423.525 151.011C447.213 148.513 471.504 144.633 493.472 135.069C497.169 133.46 501.465 130.542 504.991 128.292Z"/><path fill="#F1BDA7" d="M60.3801 120.039C62.4108 121.296 65.9356 121.524 67.483 122.456C60.3289 126.903 65.563 144.274 61.9871 151.197C61.6106 151.926 61.4625 152.54 60.6289 152.874L60.1449 152.585C59.0493 150.271 59.5462 148.892 59.8666 146.329C57.0562 148.826 55.7982 150.267 53.8929 153.512C52.0974 152.415 51.1596 151.812 49.1572 151.062C48.4959 147.861 48.3546 144.372 46.5176 141.837C49.5895 138.637 59.9364 126.565 57.9208 122.182C58.6602 121.608 59.5911 120.691 60.3801 120.039Z"/><path fill="#70D0F2" d="M76.7741 159.839C78.9957 161.513 82.5232 164.621 85.3107 164.035C88.1587 163.436 90.9386 161.143 94.1234 160.875C98.4209 161.642 99.9919 163.766 103.771 164.243C107.006 164.65 110.752 160.302 114.287 161.133C117.756 161.948 119.245 163.591 122.948 164.535C126.916 163.616 128.845 161.649 132.358 161.326C134.132 161.162 136.062 163.077 137.758 161.79C139.008 163.078 139.919 163.98 141.288 165.133C140.904 166.181 140.424 167.316 140.006 168.363C137.419 167.077 134.433 165.228 131.815 164.177C120.668 169.885 123.415 168.429 112.869 164.079C111.472 164.848 110.067 165.601 108.653 166.339C101.814 169.834 100.539 166.128 94.2039 164.072C92.4136 164.817 89.3671 166.881 87.301 167.265C79.9712 168.628 71.1132 168.055 63.5898 168.19C62.7478 168.205 62.593 168.033 62.2081 167.569C63.0964 164.539 66.17 165.698 68.493 165.424C69.8858 165.26 76.8371 165.626 77.5847 165.041C76.3027 163.295 76.6832 162.078 76.7741 159.839Z"/><path fill="#F1BDA7" d="M513.524 112.904C515.832 113.358 517.735 114.941 519.766 116.048C521.548 117.02 531.574 122.172 532.679 122.25C532.743 122.255 532.806 122.262 532.87 122.265C532.908 122.267 532.947 122.266 532.985 122.267C533.297 123.273 533.272 124.101 532.734 124.978C531.601 125.406 529.705 124.654 528.453 124.302C529.129 126.25 530.95 129.777 531.914 131.763C526.835 134.051 525.356 133.468 519.85 132.435C517.578 128.27 516.858 126.387 514.151 121.931C513.839 121.143 511.733 118.562 511.092 117.738C511.664 116.403 512.822 114.183 513.524 112.904Z"/><path fill="#70D0F2" d="M418.452 160.207L419.95 160.013C422.74 160.845 422.507 165.355 422.472 167.613C420.928 166.08 420.117 165.23 418.214 164.08C413.694 167.124 410.685 169.949 405.634 166.053C404.752 165.373 403.885 164.736 402.858 164.289C397.798 166.347 397.128 167.691 391.318 168.289C389.777 166.949 387.099 164.055 384.928 164.234C382.593 164.426 378.604 171.294 372.17 166.074C371.2 165.288 370.312 164.06 370.203 162.793C370.147 162.142 370.635 161.4 370.996 160.875C377.421 165.199 377.241 164.533 383.085 160.841C385.999 159 390.38 163.05 393.232 164.34C396.704 162.884 397.1 161.547 401.845 160.329C405.039 161.364 406.648 162.817 409.701 164.221C413.098 162.865 414.039 161.434 418.452 160.207Z"/><path fill="#70D0F2" d="M143.561 177.832C148.951 177.543 154.916 177.747 160.354 177.689C163.064 177.66 177.646 177.186 179.054 178.933C178.665 181.498 175.505 180.812 173.47 180.83C163.318 181.031 152.939 180.794 142.765 180.893C141.541 180.905 138.905 180.697 138.016 179.775L138.074 179.27C140.033 177.741 141.083 177.973 143.561 177.832Z"/><path fill="#70D0F2" d="M416.27 169.519C421.117 169.365 447.916 168.901 450.717 170.179C450.94 170.281 450.96 170.518 451.044 170.74C450.334 172.839 446.047 172.275 444.15 172.285C440.041 172.506 412.007 173.272 410.502 171.768C410.602 168.716 413.954 169.496 416.27 169.519Z"/><path fill="#70D0F2" d="M504.885 179.857C507.577 179.968 513.813 179.054 514.602 181.983C513.892 184.364 509.633 183.509 507.394 183.446C505.468 183.462 497.705 183.873 496.66 182.792C496.477 179.014 501.968 180.082 504.885 179.857Z"/><path fill="#70D0F2" d="M295.867 164.602C300.142 164.37 304.596 164.474 308.889 164.402C310.502 164.375 312.9 164.361 313.664 165.93C313.599 166.81 313.606 166.964 313.128 167.694C308.715 167.506 301.033 168.275 296.432 167.238C295.465 167.02 295.158 165.657 295.867 164.602Z"/><path fill="#70D0F2" d="M331.926 175.416C335.021 175.469 347.566 175.214 349.653 175.96C350.256 176.664 350.128 177.596 350.127 178.543C347.361 178.595 333.876 179.096 332.185 178.089C331.691 177.295 331.865 176.364 331.926 175.416Z"/><path fill="#70D0F2" d="M399.369 178.813C402.773 178.793 414.358 178.547 416.947 179.313C417.572 180.129 417.411 180.466 417.507 181.597C416.152 181.854 401.383 181.851 399.792 181.658C399.342 181.006 399.405 179.663 399.369 178.813Z"/><path fill="#70D0F2" d="M343.087 182.153C345.854 181.958 349.003 182.028 351.789 182.002C353.52 181.985 360.132 181.699 361.047 182.878C361.133 183.714 361.22 184.025 360.836 184.759C355.338 184.679 349.542 185.089 344.047 184.71C343.295 184.659 343.259 184.612 342.821 184.054C342.766 183.137 342.754 183.003 343.087 182.153Z"/><path fill="#70D0F2" d="M170.09 171.241C172.2 171.235 179.24 170.877 180.595 172.145C180.648 173.08 180.728 173.44 180.297 174.251C179.626 174.793 178.435 174.592 177.52 174.552C175.067 174.506 167.936 175.502 166.743 173.653C166.582 171.21 168.394 171.299 170.09 171.241Z"/><path fill="#70D0F2" d="M255.035 180.993C257.722 180.833 270.05 180.488 271.776 181.372C272.226 182.136 272.105 181.878 271.99 182.894L271.505 183.217C268.786 183.455 256.137 184.192 254.486 182.457C254.548 181.444 254.415 181.81 255.035 180.993Z"/><defs><linearGradient id="gradient_0" gradientUnits="userSpaceOnUse" x1="91.238747" y1="23.464672" x2="115.44074" y2="31.399908"><stop offset="0" stop-color="#4C240A"/><stop offset="1" stop-color="#0C141B"/></linearGradient></defs><path fill="url(#gradient_0)" d="M92.6472 16.6718C93.3903 13.7771 93.9406 11.5144 95.5609 8.93346C103.204 -3.24023 120.482 -1.42929 127.371 10.4169C128.686 12.6429 129.594 15.0855 130.052 17.6301C128.989 18.2954 127.931 18.9675 126.877 19.6463C127.181 25.0401 124.41 26.1389 124.899 30.9368C125.059 32.5059 127.799 35.0934 126.865 36.8592C122.022 39.847 123.009 39.6164 120.106 44.7708C118.442 47.3621 116.808 47.5373 114.22 45.8432C114.182 47.2677 114.671 47.2748 115.545 48.8055C116.474 50.4119 120.228 64.1631 121.209 67.4091C118.84 67.8388 117.61 67.9108 115.242 67.3968C114.704 68.5723 114.581 69.2823 113.127 69.6913C109.7 70.6554 103.241 71.8675 99.7389 72.1728C101.309 64.8628 102.828 59.3877 98.9776 52.5444C97.5233 48.5068 95.2607 46.562 92.1776 43.7894C93.5042 43.1288 94.6672 42.151 96.2093 41.4515C97.0848 40.0568 97.5384 37.2307 98.6276 35.1958C97.5658 35.3063 96.7416 35.2426 95.8772 34.6116C95.2918 33.2496 96.3748 31.9368 96.0896 31.3702C93.3519 25.9309 92.5825 22.8411 92.6472 16.6718Z"/><defs><linearGradient id="gradient_1" gradientUnits="userSpaceOnUse" x1="101.37897" y1="31.80497" x2="108.78138" y2="59.987499"><stop offset="0" stop-color="#E5BAA6"/><stop offset="1" stop-color="#C6D0D6"/></linearGradient></defs><path fill="url(#gradient_1)" d="M99.544 29.7534C100.902 31.3122 102.098 32.932 103.065 34.763C104.899 38.2357 107.716 39.568 109.992 42.8015C110.801 43.3696 111.365 43.8128 112.299 44.1759C113.175 44.7708 113.781 44.9797 114.22 45.8432C114.182 47.2677 114.671 47.2748 115.545 48.8055C116.474 50.4119 120.228 64.1631 121.209 67.4091C118.84 67.8388 117.61 67.9108 115.242 67.3968C114.704 68.5723 114.581 69.2823 113.127 69.6913C109.7 70.6554 103.241 71.8675 99.7389 72.1728C101.309 64.8628 102.828 59.3877 98.9776 52.5444C97.5233 48.5068 95.2607 46.562 92.1776 43.7894C93.5042 43.1288 94.6672 42.151 96.2093 41.4515C97.0848 40.0568 97.5384 37.2307 98.6276 35.1958C99.3721 35.7217 100.058 36.3636 100.939 36.2715C101.917 35.1378 100.011 31.213 99.544 29.7534Z"/><path fill="#F8942E" d="M96.2093 41.4515C100.57 42.8522 106.582 60.3877 112.871 59.8336C113.191 59.6412 113.59 59.4314 113.844 59.1693C114.929 60.8011 115.948 65.5828 115.242 67.3968C114.704 68.5723 114.581 69.2823 113.127 69.6913C109.7 70.6554 103.241 71.8675 99.7389 72.1728C101.309 64.8628 102.828 59.3877 98.9776 52.5444C97.5233 48.5068 95.2607 46.562 92.1776 43.7894C93.5042 43.1288 94.6672 42.151 96.2093 41.4515Z"/><path fill="#EB7529" d="M113.373 51.5557C113.341 50.5588 112.81 48.1559 112.998 47.7843L112.958 48.2033C114.137 47.6387 114.313 48.227 115.545 48.8055C116.474 50.4119 120.228 64.1631 121.209 67.4091C118.84 67.8388 117.61 67.9108 115.242 67.3968C115.948 65.5828 114.929 60.8011 113.844 59.1693C114.668 56.0439 114.271 54.5963 113.373 51.5557Z"/><path fill="#C79B72" d="M109.992 42.8015C110.801 43.3696 111.365 43.8128 112.299 44.1759C113.175 44.7708 113.781 44.9797 114.22 45.8432C114.182 47.2677 114.671 47.2748 115.545 48.8055C114.313 48.227 114.137 47.6387 112.958 48.2033L112.998 47.7843C112.81 48.1559 113.341 50.5588 113.373 51.5557C112.226 48.8537 110.73 45.5769 109.992 42.8015Z"/><path fill="#EB7529" d="M92.6472 16.6718C93.3903 13.7771 93.9406 11.5144 95.5609 8.93346C103.204 -3.24023 120.482 -1.42929 127.371 10.4169C128.686 12.6429 129.594 15.0855 130.052 17.6301C128.989 18.2954 127.931 18.9675 126.877 19.6463C123.336 19.8905 117.477 20.8034 114.008 20.4651C112.759 19.7235 110.836 16.3656 108.356 16.1563C106.15 15.9702 104.819 17.2064 103.193 18.4659C100.502 18.1212 94.3584 16.6302 92.6472 16.6718Z"/><path fill="#F1BDA7" d="M114.008 20.4651C117.477 20.8034 123.336 19.8905 126.877 19.6463C127.181 25.0401 124.41 26.1389 124.899 30.9368C125.059 32.5059 127.799 35.0934 126.865 36.8592C122.022 39.847 123.009 39.6164 120.106 44.7708C118.442 47.3621 116.808 47.5373 114.22 45.8432C113.781 44.9797 113.175 44.7708 112.299 44.1759C112.091 43.0952 112.429 42.7899 113.074 42.0531C112.394 41.2385 110.461 39.4892 109.613 38.6806C110.213 35.8068 112.325 21.9188 114.008 20.4651Z"/><path fill="#100C0B" d="M113.074 42.0531C114.949 43.4311 117.761 44.753 120.106 44.7708C118.442 47.3621 116.808 47.5373 114.22 45.8432C113.781 44.9797 113.175 44.7708 112.299 44.1759C112.091 43.0952 112.429 42.7899 113.074 42.0531Z"/><path fill="#4B2815" d="M116.608 25.3222C119.889 25.2266 122.446 25.7489 125.538 26.6303C122.757 27.3787 122.788 27.6945 120.664 29.5119C120.14 29.9601 118.842 29.5095 118.047 29.3416L117.902 29.2989L117.769 28.9708C118.463 28.1173 121.631 26.8764 122.815 26.3487C120.611 26.2079 116.404 26.5474 115.277 26.3982L115.304 26.1117L116.608 25.3222Z"/><path fill="#F1BDA7" d="M107.428 19.7264C110.488 19.56 109.132 24.3965 108.775 26.0217C108.253 28.3935 107.658 30.754 107.061 33.1071L106.731 33.2873L105.857 32.6061C104.149 30.6325 103.26 28.4424 102.268 26.0744C103.498 23.5206 105.462 21.7849 107.428 19.7264Z"/><path fill="#F7F7F7" d="M92.1776 43.7894C95.2607 46.562 97.5233 48.5068 98.9776 52.5444C102.828 59.3877 101.309 64.8628 99.7389 72.1728C98.3602 74.6823 97.6602 75.89 95.8316 78.1636C93.2563 80.4734 87.2674 85.3446 84.0157 86.2098C80.1827 90.0515 81.9117 92.2247 80.8497 95.4271C77.7708 98.824 73.696 109.482 71.9681 113.864C71.3253 115.493 68.358 120.742 68.4142 121.891L67.483 122.456C65.9356 121.524 62.4108 121.296 60.3801 120.039C60.5432 117.8 59.8391 115.967 60.3718 112.137C62.3901 97.9112 68.1969 84.9584 73.9053 71.8899C78.7438 60.813 78.9591 47.6262 92.1776 43.7894Z"/><path fill="#B4B3B3" d="M98.9776 52.5444C102.828 59.3877 101.309 64.8628 99.7389 72.1728C98.3602 74.6823 97.6602 75.89 95.8316 78.1636C93.2563 80.4734 87.2674 85.3446 84.0157 86.2098C84.2162 84.9185 86.1728 81.3195 86.8619 79.9922L93.8455 66.6026C96.7537 61.0299 98.4897 58.9335 98.9776 52.5444Z"/><path fill="#100C0B" d="M386.327 16.8428C384.077 11.5421 391.284 5.77482 395.56 4.26796C408.567 -0.31569 422.231 8.79083 420.869 22.9568C420.567 24.6223 420.557 25.4898 419.16 26.5076C418.829 27.0358 418.215 27.9443 417.944 28.4576L417.657 30.8542C417.614 31.6294 417.531 32.5179 417.792 33.4347C418.215 34.9203 421.384 37.7085 420.193 39.2478C419.844 39.6986 417.811 40.4509 417.229 40.7896C416.209 41.3835 413.126 46.9047 413.028 47.6697C411.114 50.6972 408.052 47.8024 405.454 47.6677L405.38 47.5168C405.178 48.4371 405.217 48.7546 404.101 49.0318C397.267 48.0821 393.372 43.9298 390.306 43.6133L391.025 40.4441C390.538 35.8518 384.928 35.5032 385.338 29.0503C385.59 25.0834 385.893 20.8695 386.327 16.8428Z"/><path fill="#EB7529" d="M386.327 16.8428C384.077 11.5421 391.284 5.77482 395.56 4.26796C408.567 -0.31569 422.231 8.79083 420.869 22.9568C420.567 24.6223 420.557 25.4898 419.16 26.5076C416.417 25.6469 415.461 25.5534 412.649 24.3859C410.592 24.4747 408.078 22.8326 406.434 23.0385C406.088 22.7317 405.812 22.1981 405.546 21.8065C402.196 16.8634 400.829 17.5386 396.443 20.5054C394.336 19.4057 388.55 16.4579 386.327 16.8428Z"/><path fill="#100C0B" d="M412.649 24.3859C414.856 23.5177 417.097 24.4713 420.869 22.9568C420.567 24.6223 420.557 25.4898 419.16 26.5076C416.417 25.6469 415.461 25.5534 412.649 24.3859Z"/><path fill="#F1BDA7" d="M406.434 23.0385C408.078 22.8326 410.592 24.4747 412.649 24.3859C415.461 25.5534 416.417 25.6469 419.16 26.5076C418.829 27.0358 418.215 27.9443 417.944 28.4576L417.657 30.8542C417.614 31.6294 417.531 32.5179 417.792 33.4347C418.215 34.9203 421.384 37.7085 420.193 39.2478C419.844 39.6986 417.811 40.4509 417.229 40.7896C416.209 41.3835 413.126 46.9047 413.028 47.6697C411.114 50.6972 408.052 47.8024 405.454 47.6677L405.38 47.5168L403.24 44.9311C403.494 44.3908 404.284 43.7763 404.761 43.3586L403.033 41.2888C403.69 33.8747 404.984 30.1556 406.434 23.0385Z"/><path fill="#100C0B" d="M404.761 43.3586C406.962 45.033 410.342 46.9412 413.028 47.6697C411.114 50.6972 408.052 47.8024 405.454 47.6677L405.38 47.5168L403.24 44.9311C403.494 44.3908 404.284 43.7763 404.761 43.3586Z"/><path fill="#4B2815" d="M405.735 27.9697C409.39 27.4606 414.495 27.2435 417.944 28.4576L417.657 30.8542C416.74 30.0296 416.048 29.9588 414.856 29.6761L414.544 29.1241C413.442 28.2583 407.797 28.1776 405.735 27.9697Z"/><path fill="#2D0C0C" d="M414.856 29.6761C414.678 30.5241 414.642 30.9621 414.136 31.6591C412.909 32.1719 412.335 31.8749 410.858 31.7241C411.438 30.7283 413.374 30.3387 414.856 29.6761Z"/><path fill="#F1BDA7" d="M393.739 32.6318C397.61 40.773 397.723 39.0187 403.24 44.9311L405.38 47.5168C405.178 48.4371 405.217 48.7546 404.101 49.0318C397.267 48.0821 393.372 43.9298 390.306 43.6133L391.025 40.4441C390.968 38.6527 393.101 34.6589 393.739 32.6318Z"/><path fill="#F1BDA7" d="M400.591 21.7333C401.621 22.0587 402.337 23.0144 403.085 23.8252C402.465 25.5874 400.145 35.3072 399.571 35.8339L399.114 35.521C397.432 33.1134 396.369 31.2032 395.172 28.5551C396.858 25.6254 398.273 24.0838 400.591 21.7333Z"/><path fill="#100C0B" d="M468.742 22.3674C465.275 -3.11214 498.931 -3.90045 502.108 11.97C503.675 14.0762 504.404 15.8223 502.66 18.2814C502.52 18.48 502.047 19.0396 501.955 19.2208C502.069 21.5501 501.729 24.285 500.686 26.3886L500.123 27.6567C499.966 28.5033 499.824 29.3216 499.89 30.0222C499.994 31.1252 503.098 35.5904 502.042 36.172C498.588 38.0756 497.888 41.6017 495.621 44.2768C494.748 45.6029 494.544 46.0507 493.117 46.8305C492.108 45.5401 489.874 44.7144 488.359 44.0831C488.01 44.9717 488.052 44.956 487.102 45.3536C482.237 46.0433 477.581 41.825 473.962 41.7843L473.147 41.0132C473.306 40.404 473.423 39.0153 473.5 38.3327C473.551 36.1638 470.848 35.2602 470.131 32.8719C469.2 29.7723 469.012 25.5953 468.742 22.3674Z"/><path fill="#EB7529" d="M468.742 22.3674C465.275 -3.11214 498.931 -3.90045 502.108 11.97C498.407 17.6639 493.868 17.259 488.062 19.6729C483.831 13.1859 480.968 17.784 477.22 21.5188C474.396 21.8991 471.315 21.998 468.742 22.3674Z"/><path fill="#F1BDA7" d="M489.134 22.7543C493.182 21.534 497.985 20.9205 501.955 19.2208C502.069 21.5501 501.729 24.285 500.686 26.3886L500.123 27.6567C499.966 28.5033 499.824 29.3216 499.89 30.0222C499.994 31.1252 503.098 35.5904 502.042 36.172C498.588 38.0756 497.888 41.6017 495.621 44.2768C494.748 45.6029 494.544 46.0507 493.117 46.8305C492.108 45.5401 489.874 44.7144 488.359 44.0831L488.047 43.9297C487.681 42.5848 487.771 42.5499 488.712 41.6827C487.418 40.5167 486.513 39.625 485.326 38.3498C486.826 32.3268 486.908 28.9928 489.134 22.7543Z"/><path fill="#89645E" d="M489.13 26.8628C493.261 25.1196 496.286 25.4463 500.686 26.3886L500.123 27.6567C498.783 27.5597 497.917 27.4463 497.437 28.8094C496.961 30.1643 494.651 30.0824 493.643 29.3954C493.991 28.3028 495.158 28.3985 496.029 27.1636L495.686 26.8147C493.308 26.3585 491.531 26.6628 489.13 26.8628Z"/><path fill="#100C0B" d="M488.712 41.6827C491.007 43.1532 492.809 44.1925 495.621 44.2768C494.748 45.6029 494.544 46.0507 493.117 46.8305C492.108 45.5401 489.874 44.7144 488.359 44.0831L488.047 43.9297C487.681 42.5848 487.771 42.5499 488.712 41.6827Z"/><path fill="#F1BDA7" d="M476.62 30.6984C478.651 34.2537 484.357 42.2661 488.047 43.9297L488.359 44.0831C488.01 44.9717 488.052 44.956 487.102 45.3536C482.237 46.0433 477.581 41.825 473.962 41.7843L473.147 41.0132C473.306 40.404 473.423 39.0153 473.5 38.3327C473.63 36.3794 475.668 32.5954 476.62 30.6984Z"/><path fill="#F1BDA7" d="M483.524 19.6897C484.612 19.8318 485.229 21.3142 485.729 22.1947C485.269 23.9855 483.199 32.723 482.262 33.3123L481.885 32.9603C477.36 25.6552 477.647 26.0865 483.524 19.6897Z"/><path fill="#4B2815" d="M228.305 40.7973C227.495 40.3575 226.574 38.4333 226.231 37.5641C224.814 33.9754 222.407 31.317 222.045 27.3423C221.459 20.9321 222.103 14.0231 227.526 9.74516C232.993 5.41106 239.433 8.27928 245.377 9.6136C247.617 10.1071 250.365 10.0717 252.738 10.3813C255.079 13.0673 255.402 15.757 251.779 17.5319C253.186 20.5244 255.052 23.4202 254.267 26.685L253.574 27.5974C253.173 30.4826 254.825 31.7761 256.605 33.7632C254.37 37.5101 252.93 41.1714 251.063 45.035C250.045 47.1421 245.678 45.61 244.395 46.724C243.912 47.1441 243.977 50.0086 243.998 50.8442L244.274 51.3141C243.675 51.4927 243.267 51.6827 242.666 51.55C241.556 51.0657 227.543 50.2288 225.361 50.1193C225.642 48.1306 227.189 45.9336 228.175 44.0627C228.401 42.6579 228.387 42.2159 228.305 40.7973Z"/><path fill="#F1BDA7" d="M246.448 17.9445C248.184 17.5773 250.012 17.3232 251.779 17.5319C253.186 20.5244 255.052 23.4202 254.267 26.685L253.574 27.5974C253.173 30.4826 254.825 31.7761 256.605 33.7632C254.37 37.5101 252.93 41.1714 251.063 45.035C250.045 47.1421 245.678 45.61 244.395 46.724C243.912 47.1441 243.977 50.0086 243.998 50.8442L244.274 51.3141C243.675 51.4927 243.267 51.6827 242.666 51.55C241.556 51.0657 227.543 50.2288 225.361 50.1193C225.642 48.1306 227.189 45.9336 228.175 44.0627C228.401 42.6579 228.387 42.2159 228.305 40.7973C229.7 40.7965 231.687 41.173 233.037 41.1364C237.745 41.0091 234.879 30.6783 234.507 27.5351C236.513 22.3823 239.196 22.9916 243.854 24.2308L246.918 23.3771L246.448 17.9445Z"/><path fill="#A0C95E" d="M225.361 50.1193C225.642 48.1306 227.189 45.9336 228.175 44.0627C228.805 46.1037 242.827 51.1127 243.998 50.8442L244.274 51.3141C243.675 51.4927 243.267 51.6827 242.666 51.55C241.556 51.0657 227.543 50.2288 225.361 50.1193Z"/><path fill="#4B2815" d="M253.574 27.5974C251.287 28.0374 250.963 30.0817 248.848 29.867L248.759 29.3279C249.129 28.8413 249.503 28.3583 249.882 27.8791L249.721 27.5752C248.494 27.4744 247.461 27.4333 246.269 27.0925L246.3 26.7551C247.511 25.925 252.744 26.3594 254.267 26.685L253.574 27.5974Z"/><defs><linearGradient id="gradient_2" gradientUnits="userSpaceOnUse" x1="179.95509" y1="21.633614" x2="165.53378" y2="33.755512"><stop offset="0" stop-color="#2B1B15"/><stop offset="1" stop-color="#1C1E21"/></linearGradient></defs><path fill="url(#gradient_2)" d="M159.926 21.2261C158.436 17.4982 161.786 9.73454 164.419 6.86139C172.203 -1.63028 192.607 1.60395 192.759 14.5182C192.654 15.4265 192.602 16.5078 192.2 17.3077C192.112 19.3929 192.091 20.258 191.531 22.2502L191.375 23.56C191.606 24.6599 191.789 25.5566 192.131 26.6357C199.996 33.7783 191.69 31.8744 191.555 40.4127C190.965 41.7667 190.679 42.3165 189.878 43.555C188.855 43.3784 183.51 42.5416 182.777 42.3004L182.365 42.813C182.528 43.2394 183.044 44.4486 183.015 44.8188C182.772 45.7089 182.551 46.6048 182.351 47.5056C179.718 47.5223 173.535 44.0484 170.909 42.7023L170.502 42.537C169.747 41.2879 169.379 39.7403 168.978 38.3276C168.273 37.1967 167.226 35.0768 166.558 33.8333L162.951 31.9681C161.136 28.6799 160.415 24.9168 159.926 21.2261Z"/><path fill="#EB7529" d="M159.926 21.2261C158.436 17.4982 161.786 9.73454 164.419 6.86139C172.203 -1.63028 192.607 1.60395 192.759 14.5182C192.654 15.4265 192.602 16.5078 192.2 17.3077L189.76 18.0091C188.377 18.4184 185.94 18.9623 184.771 19.4045C183.611 19.7136 181.193 20.4329 180.109 20.4682C177.397 18.3863 173.928 15.0472 170.987 19.2824C170.685 19.7188 170.257 20.2135 169.913 20.6276C167.32 21.024 161.456 20.8163 159.926 21.2261Z"/><path fill="#633C16" d="M189.496 17.1121C189.553 17.6956 189.459 17.595 189.76 18.0091C188.377 18.4184 185.94 18.9623 184.771 19.4045C184.045 19.3619 183.723 19.47 183.209 19.1045C183.818 18.3705 188.253 17.4261 189.496 17.1121Z"/><path fill="#2D0C0C" d="M192.759 14.5182C192.654 15.4265 192.602 16.5078 192.2 17.3077L189.76 18.0091C189.459 17.595 189.553 17.6956 189.496 17.1121C191.011 16.2289 191.484 15.7441 192.759 14.5182Z"/><path fill="#FCD3AF" d="M189.76 18.0091L192.2 17.3077C192.112 19.3929 192.091 20.258 191.531 22.2502L191.375 23.56C191.606 24.6599 191.789 25.5566 192.131 26.6357C199.996 33.7783 191.69 31.8744 191.555 40.4127C189.224 41.0679 188.49 40.9411 186.132 40.3513C184.05 39.3993 182.826 39.0345 180.634 37.8599C179.756 33.6521 179.965 25.047 180.109 20.4682C181.193 20.4329 183.611 19.7136 184.771 19.4045C185.94 18.9623 188.377 18.4184 189.76 18.0091Z"/><path fill="#4B2815" d="M184.754 27.2992C185.382 26.9095 186.005 26.51 186.621 26.1011C187.347 25.6124 188.162 25.0418 188.324 24.1991C186.939 23.7086 183.613 24.7415 181.963 24.3549L181.958 24.3125C184.452 23.267 188.785 22.6832 191.531 22.2502L191.375 23.56L191.182 23.4163L190.327 23.756C189.578 24.4971 189.335 25.4225 188.978 26.4113C187.648 26.7342 186.11 27.0164 184.754 27.2992Z"/><path fill="#FCD3AF" d="M169.754 31.7009C171.625 33.8529 172.17 34.3721 174.165 36.2323C176.401 38.3179 182.332 40.2883 182.365 42.813C182.528 43.2394 183.044 44.4486 183.015 44.8188C182.772 45.7089 182.551 46.6048 182.351 47.5056C179.718 47.5223 173.535 44.0484 170.909 42.7023L170.502 42.537C169.747 41.2879 169.379 39.7403 168.978 38.3276C169.42 35.958 169.623 34.1086 169.754 31.7009Z"/><path fill="#100C0B" d="M178.701 37.6908C181.778 38.9078 182.336 40.1926 186.132 40.3513C188.49 40.9411 189.224 41.0679 191.555 40.4127C190.965 41.7667 190.679 42.3165 189.878 43.555C188.855 43.3784 183.51 42.5416 182.777 42.3004C182.563 40.4673 180.242 39.0296 178.701 37.6908Z"/><path fill="#FCD3AF" d="M174.415 19.992C175.35 20.4471 175.912 21.3108 176.559 22.1323C176.745 25.8498 176.652 30.3794 176.677 34.1585L174.491 32.126C173.05 30.8937 171.951 29.5051 170.835 27.9888C171.354 25.042 172.618 22.3682 174.415 19.992Z"/></svg>